<svg width="101" height="16" viewBox="0 0 101 16" fill="none" xmlns="http://www.w3.org/2000/svg">
<g clip-path="url(#clip0_7192_4776)">
<path fill-rule="evenodd" clip-rule="evenodd" d="M8.52584 0.443134L10.4646 4.56751L14.9863 5.13125C15.4049 5.18519 15.7113 5.57153 15.6575 5.99044C15.6303 6.1946 15.5284 6.37159 15.3834 6.49546L12.0919 9.57785L12.9511 14.0565C13.0314 14.4753 12.7577 14.8781 12.3386 14.9586C12.1562 14.9907 11.9736 14.9586 11.8232 14.8727L7.82766 12.6764L3.83794 14.8727C3.46217 15.082 2.99492 14.9426 2.79097 14.5718C2.69946 14.4054 2.67809 14.2228 2.71046 14.0565L3.56406 9.57785L0.240355 6.4577C-0.0660994 6.16764 -0.0822832 5.67921 0.207781 5.37297C0.336629 5.23333 0.503446 5.15822 0.675036 5.13665V5.13125L5.19654 4.56751L7.13507 0.443134C7.31248 0.0565902 7.76914 -0.104418 8.15548 0.0727741C8.32728 0.153278 8.45094 0.28752 8.52584 0.443134Z" fill="url(#paint0_linear_7192_4776)"/>
</g>
<g clip-path="url(#clip1_7192_4776)">
<path fill-rule="evenodd" clip-rule="evenodd" d="M50.4868 0.443134L52.4255 4.56751L56.9472 5.13125C57.3659 5.18519 57.6722 5.57153 57.6184 5.99044C57.5913 6.1946 57.4893 6.37159 57.3443 6.49546L54.0529 9.57785L54.912 14.0565C54.9923 14.4753 54.7186 14.8781 54.2996 14.9586C54.1171 14.9907 53.9346 14.9586 53.7842 14.8727L49.7886 12.6764L45.7989 14.8727C45.4231 15.082 44.9559 14.9426 44.7519 14.5718C44.6604 14.4054 44.639 14.2228 44.6714 14.0565L45.525 9.57785L42.2013 6.4577C41.8948 6.16764 41.8787 5.67921 42.1687 5.37297C42.2976 5.23333 42.4644 5.15822 42.636 5.13665V5.13125L47.1575 4.56751L49.096 0.443134C49.2734 0.0565902 49.7301 -0.104418 50.1164 0.0727741C50.2882 0.153278 50.4119 0.28752 50.4868 0.443134Z" fill="url(#paint1_linear_7192_4776)"/>
</g>
<g clip-path="url(#clip2_7192_4776)">
<path fill-rule="evenodd" clip-rule="evenodd" d="M29.5102 0.442157L31.449 4.56653L35.9707 5.13027C36.3893 5.18422 36.6957 5.57056 36.6419 5.98946C36.6147 6.19363 36.5128 6.37061 36.3678 6.49448L33.0763 9.57688L33.9354 14.0555C34.0157 14.4743 33.7421 14.8771 33.323 14.9576C33.1406 14.9897 32.958 14.9576 32.8076 14.8717L28.812 12.6754L24.8223 14.8717C24.4465 15.0811 23.9793 14.9416 23.7753 14.5709C23.6838 14.4044 23.6625 14.2218 23.6948 14.0555L24.5484 9.57688L21.2247 6.45673C20.9183 6.16666 20.9021 5.67824 21.1922 5.37199C21.321 5.23235 21.4878 5.15725 21.6594 5.13567V5.13027L26.1809 4.56653L28.1194 0.442157C28.2969 0.0556137 28.7535 -0.105394 29.1399 0.0717975C29.3117 0.152301 29.4353 0.286544 29.5102 0.442157Z" fill="url(#paint2_linear_7192_4776)"/>
</g>
<g clip-path="url(#clip3_7192_4776)">
<path fill-rule="evenodd" clip-rule="evenodd" d="M71.4712 0.442157L73.4099 4.56653L77.9316 5.13027C78.3503 5.18422 78.6566 5.57056 78.6028 5.98946C78.5756 6.19363 78.4737 6.37061 78.3287 6.49448L75.0372 9.57688L75.8964 14.0555C75.9767 14.4743 75.703 14.8771 75.2839 14.9576C75.1015 14.9897 74.919 14.9576 74.7686 14.8717L70.773 12.6754L66.7832 14.8717C66.4075 15.0811 65.9402 14.9416 65.7363 14.5709C65.6448 14.4044 65.6234 14.2218 65.6558 14.0555L66.5094 9.57688L63.1857 6.45673C62.8792 6.16666 62.863 5.67824 63.1531 5.37199C63.2819 5.23235 63.4488 5.15725 63.6203 5.13567V5.13027L68.1419 4.56653L70.0804 0.442157C70.2578 0.0556137 70.7145 -0.105394 71.1008 0.0717975C71.2726 0.152301 71.3963 0.286544 71.4712 0.442157Z" fill="url(#paint3_linear_7192_4776)"/>
</g>
<g clip-path="url(#clip4_7192_4776)">
<path fill-rule="evenodd" clip-rule="evenodd" d="M92.4477 0.442157L94.3865 4.56653L98.9082 5.13027C99.3268 5.18422 99.6332 5.57056 99.5794 5.98946C99.5522 6.19363 99.4503 6.37061 99.3053 6.49448L96.0138 9.57688L96.8729 14.0555C96.9532 14.4743 96.6796 14.8771 96.2605 14.9576C96.0781 14.9897 95.8955 14.9576 95.7451 14.8717L91.7495 12.6754L87.7598 14.8717C87.384 15.0811 86.9168 14.9416 86.7128 14.5709C86.6213 14.4044 86.6 14.2218 86.6323 14.0555L87.4859 9.57688L84.1622 6.45673C83.8558 6.16666 83.8396 5.67824 84.1297 5.37199C84.2585 5.23235 84.4253 5.15725 84.5969 5.13567V5.13027L89.1184 4.56653L91.0569 0.442157C91.2344 0.0556137 91.691 -0.105394 92.0774 0.0717975C92.2492 0.152301 92.3728 0.286544 92.4477 0.442157Z" fill="#C8C8C8"/>
<g clip-path="url(#clip5_7192_4776)">
<path fill-rule="evenodd" clip-rule="evenodd" d="M92.4477 0.442157L94.3865 4.56653L98.9082 5.13027C99.3268 5.18422 99.6332 5.57056 99.5794 5.98946C99.5522 6.19363 99.4503 6.37061 99.3053 6.49448L96.0138 9.57688L96.8729 14.0555C96.9532 14.4743 96.6796 14.8771 96.2605 14.9576C96.0781 14.9897 95.8955 14.9576 95.7451 14.8717L91.7495 12.6754L87.7598 14.8717C87.384 15.0811 86.9168 14.9416 86.7128 14.5709C86.6213 14.4044 86.6 14.2218 86.6323 14.0555L87.4859 9.57688L84.1622 6.45673C83.8558 6.16666 83.8396 5.67824 84.1297 5.37199C84.2585 5.23235 84.4253 5.15725 84.5969 5.13567V5.13027L89.1184 4.56653L91.0569 0.442157C91.2344 0.0556137 91.691 -0.105394 92.0774 0.0717975C92.2492 0.152301 92.3728 0.286544 92.4477 0.442157Z" fill="url(#paint4_linear_7192_4776)"/>
</g>
</g>
<defs>
<linearGradient id="paint0_linear_7192_4776" x1="0" y1="0.000976562" x2="0" y2="14.9708" gradientUnits="userSpaceOnUse">
<stop stop-color="#FBD249"/>
<stop offset="1" stop-color="#F5A623"/>
</linearGradient>
<linearGradient id="paint1_linear_7192_4776" x1="41.9609" y1="0.000976562" x2="41.9609" y2="14.9708" gradientUnits="userSpaceOnUse">
<stop stop-color="#FBD249"/>
<stop offset="1" stop-color="#F5A623"/>
</linearGradient>
<linearGradient id="paint2_linear_7192_4776" x1="20.9844" y1="-2.04975e-10" x2="20.9844" y2="14.9698" gradientUnits="userSpaceOnUse">
<stop stop-color="#FBD249"/>
<stop offset="1" stop-color="#F5A623"/>
</linearGradient>
<linearGradient id="paint3_linear_7192_4776" x1="62.9453" y1="-2.04975e-10" x2="62.9453" y2="14.9698" gradientUnits="userSpaceOnUse">
<stop stop-color="#FBD249"/>
<stop offset="1" stop-color="#F5A623"/>
</linearGradient>
<linearGradient id="paint4_linear_7192_4776" x1="83.9219" y1="-2.04975e-10" x2="83.9219" y2="14.9698" gradientUnits="userSpaceOnUse">
<stop stop-color="#FBD249"/>
<stop offset="1" stop-color="#F5A623"/>
</linearGradient>
<clipPath id="clip0_7192_4776">
<rect width="16.5646" height="15.4603" fill="white" transform="translate(0 0.000976562)"/>
</clipPath>
<clipPath id="clip1_7192_4776">
<rect width="16.5646" height="15.4603" fill="white" transform="translate(41.9609 0.000976562)"/>
</clipPath>
<clipPath id="clip2_7192_4776">
<rect width="16.5646" height="15.4603" fill="white" transform="translate(20.9844)"/>
</clipPath>
<clipPath id="clip3_7192_4776">
<rect width="16.5646" height="15.4603" fill="white" transform="translate(62.9453)"/>
</clipPath>
<clipPath id="clip4_7192_4776">
<rect width="16.5646" height="15.4603" fill="white" transform="translate(83.9219)"/>
</clipPath>
<clipPath id="clip5_7192_4776">
<rect width="8.83444" height="15.4603" fill="white" transform="translate(83.9219)"/>
</clipPath>
</defs>
</svg>
