<svg width="24" height="24" viewBox="0 0 24 24" fill="none" xmlns="http://www.w3.org/2000/svg">
<g clip-path="url(#clip0_4029_953)">
<circle cx="12" cy="12" r="12" fill="#0152FF"/>
<path d="M17.0586 9.10862L10.1375 16.0297C10.0773 16.0902 10.0056 16.1382 9.92677 16.1709C9.8479 16.2037 9.76334 16.2205 9.67795 16.2205C9.59255 16.2205 9.50799 16.2037 9.42912 16.1709C9.35025 16.1382 9.27862 16.0902 9.21834 16.0297L6.19037 13.0017C6.13002 12.9414 6.08214 12.8697 6.04948 12.7909C6.01681 12.712 6 12.6275 6 12.5421C6 12.4568 6.01681 12.3722 6.04948 12.2934C6.08214 12.2145 6.13002 12.1429 6.19037 12.0825C6.25073 12.0222 6.32238 11.9743 6.40124 11.9416C6.4801 11.909 6.56462 11.8921 6.64998 11.8921C6.73533 11.8921 6.81985 11.909 6.89871 11.9416C6.97757 11.9743 7.04922 12.0222 7.10958 12.0825L9.67849 14.6514L16.1405 8.1905C16.2624 8.0686 16.4277 8.00012 16.6001 8.00012C16.7725 8.00012 16.9378 8.0686 17.0597 8.1905C17.1816 8.31239 17.2501 8.47771 17.2501 8.6501C17.2501 8.82248 17.1816 8.98781 17.0597 9.1097L17.0586 9.10862Z" fill="#FEFEFF"/>
</g>
<defs>
<clipPath id="clip0_4029_953">
<rect width="24" height="24" fill="white"/>
</clipPath>
</defs>
</svg>
