<svg width="60" height="60" viewBox="0 0 60 60" fill="none" xmlns="http://www.w3.org/2000/svg">
<path d="M42.7475 9.81836H11.7973C7.6916 9.81836 4.36328 13.1467 4.36328 17.2524V48.2025C4.36328 52.3082 7.6916 55.6365 11.7973 55.6365H42.7475C46.8531 55.6365 50.1815 52.3082 50.1815 48.2025V17.2524C50.1815 13.1467 46.8531 9.81836 42.7475 9.81836Z" fill="url(#paint0_linear_1239_5827)" fill-opacity="0.2"/>
<path d="M17.4547 4.36377C13.2373 4.36377 9.81836 7.78269 9.81836 12.0001V42.5456C9.81836 46.763 13.2373 50.1819 17.4547 50.1819H48.0002C52.2176 50.1819 55.6365 46.763 55.6365 42.5456V12.0001C55.6365 7.78269 52.2176 4.36377 48.0002 4.36377H17.4547Z" fill="url(#paint1_linear_1239_5827)"/>
<path d="M38 38.25V35.75C38 34.4239 37.4732 33.1521 36.5355 32.2145C35.5979 31.2768 34.3261 30.75 33 30.75H24.25C22.9239 30.75 21.6521 31.2768 20.7145 32.2145C19.7768 33.1521 19.25 34.4239 19.25 35.75V38.25" stroke="white" stroke-width="2.2" stroke-linecap="round" stroke-linejoin="round"/>
<path d="M28.625 25.75C31.3864 25.75 33.625 23.5114 33.625 20.75C33.625 17.9886 31.3864 15.75 28.625 15.75C25.8636 15.75 23.625 17.9886 23.625 20.75C23.625 23.5114 25.8636 25.75 28.625 25.75Z" stroke="white" stroke-width="2.2" stroke-linecap="round" stroke-linejoin="round"/>
<path d="M39.25 25.75L41.75 28.25L46.75 23.25" stroke="white" stroke-width="2.2" stroke-linecap="round" stroke-linejoin="round"/>
<defs>
<linearGradient id="paint0_linear_1239_5827" x1="4.54499" y1="9.45464" x2="60.5188" y2="66.9667" gradientUnits="userSpaceOnUse">
<stop stop-color="#084BFF"/>
<stop offset="1" stop-color="#F24B8B"/>
</linearGradient>
<linearGradient id="paint1_linear_1239_5827" x1="10.0001" y1="4.00005" x2="65.9739" y2="61.5122" gradientUnits="userSpaceOnUse">
<stop stop-color="#084BFF"/>
<stop offset="1" stop-color="#F24B8B"/>
</linearGradient>
</defs>
</svg>
