<svg width="20" height="21" viewBox="0 0 20 21" fill="none" xmlns="http://www.w3.org/2000/svg">
<path d="M10 2.625C8.39303 2.625 6.82214 3.10152 5.486 3.99431C4.14985 4.8871 3.10844 6.15605 2.49348 7.6407C1.87852 9.12535 1.71762 10.759 2.03112 12.3351C2.34463 13.9112 3.11846 15.3589 4.25476 16.4952C5.39106 17.6315 6.8388 18.4054 8.4149 18.7189C9.99099 19.0324 11.6247 18.8715 13.1093 18.2565C14.594 17.6416 15.8629 16.6002 16.7557 15.264C17.6485 13.9279 18.125 12.357 18.125 10.75C18.1227 8.59581 17.266 6.53051 15.7427 5.00727C14.2195 3.48403 12.1542 2.62727 10 2.625ZM10 17.625C8.64026 17.625 7.31105 17.2218 6.18046 16.4664C5.04987 15.7109 4.16868 14.6372 3.64833 13.3809C3.12798 12.1247 2.99183 10.7424 3.2571 9.40875C3.52238 8.07513 4.17716 6.85013 5.13864 5.88864C6.10013 4.92716 7.32514 4.27237 8.65876 4.0071C9.99238 3.74183 11.3747 3.87798 12.631 4.39833C13.8872 4.91868 14.9609 5.79987 15.7164 6.93045C16.4718 8.06104 16.875 9.39025 16.875 10.75C16.8729 12.5727 16.1479 14.3202 14.8591 15.6091C13.5702 16.8979 11.8227 17.6229 10 17.625ZM13.125 12.3125C13.125 12.8927 12.8945 13.4491 12.4843 13.8593C12.0741 14.2695 11.5177 14.5 10.9375 14.5H10.625V15.125C10.625 15.2908 10.5592 15.4497 10.4419 15.5669C10.3247 15.6842 10.1658 15.75 10 15.75C9.83424 15.75 9.67527 15.6842 9.55806 15.5669C9.44085 15.4497 9.375 15.2908 9.375 15.125V14.5H8.125C7.95924 14.5 7.80027 14.4342 7.68306 14.3169C7.56585 14.1997 7.5 14.0408 7.5 13.875C7.5 13.7092 7.56585 13.5503 7.68306 13.4331C7.80027 13.3158 7.95924 13.25 8.125 13.25H10.9375C11.1861 13.25 11.4246 13.1512 11.6004 12.9754C11.7762 12.7996 11.875 12.5611 11.875 12.3125C11.875 12.0639 11.7762 11.8254 11.6004 11.6496C11.4246 11.4738 11.1861 11.375 10.9375 11.375H9.0625C8.48234 11.375 7.92594 11.1445 7.51571 10.7343C7.10547 10.3241 6.875 9.76766 6.875 9.1875C6.875 8.60734 7.10547 8.05094 7.51571 7.6407C7.92594 7.23047 8.48234 7 9.0625 7H9.375V6.375C9.375 6.20924 9.44085 6.05027 9.55806 5.93306C9.67527 5.81585 9.83424 5.75 10 5.75C10.1658 5.75 10.3247 5.81585 10.4419 5.93306C10.5592 6.05027 10.625 6.20924 10.625 6.375V7H11.875C12.0408 7 12.1997 7.06585 12.3169 7.18306C12.4342 7.30027 12.5 7.45924 12.5 7.625C12.5 7.79076 12.4342 7.94973 12.3169 8.06694C12.1997 8.18415 12.0408 8.25 11.875 8.25H9.0625C8.81386 8.25 8.57541 8.34877 8.39959 8.52459C8.22378 8.7004 8.125 8.93886 8.125 9.1875C8.125 9.43614 8.22378 9.6746 8.39959 9.85041C8.57541 10.0262 8.81386 10.125 9.0625 10.125H10.9375C11.5177 10.125 12.0741 10.3555 12.4843 10.7657C12.8945 11.1759 13.125 11.7323 13.125 12.3125Z" fill="#1D2434"/>
</svg>
