<svg width="60" height="60" viewBox="0 0 60 60" fill="none" xmlns="http://www.w3.org/2000/svg">
<path d="M42.7436 9.81836H11.7934C7.68769 9.81836 4.35938 13.1467 4.35938 17.2524V48.2025C4.35938 52.3082 7.68769 55.6365 11.7934 55.6365H42.7436C46.8492 55.6365 50.1776 52.3082 50.1776 48.2025V17.2524C50.1776 13.1467 46.8492 9.81836 42.7436 9.81836Z" fill="url(#paint0_linear_1725_2216)" fill-opacity="0.2"/>
<path d="M17.6364 4C13.4189 4 10 7.41892 10 11.6364V42.1818C10 46.3993 13.4189 49.8182 17.6364 49.8182H48.1818C52.3993 49.8182 55.8182 46.3993 55.8182 42.1818V11.6364C55.8182 7.41892 52.3993 4 48.1818 4H17.6364Z" fill="url(#paint1_linear_1725_2216)"/>
<path d="M41.4375 17.625H33.9375V13.875C33.9375 13.6264 33.8387 13.3879 33.6629 13.2121C33.4871 13.0363 33.2486 12.9375 33 12.9375C32.7514 12.9375 32.5129 13.0363 32.3371 13.2121C32.1613 13.3879 32.0625 13.6264 32.0625 13.875V17.625H24.5625C23.5679 17.625 22.6141 18.0201 21.9108 18.7233C21.2076 19.4266 20.8125 20.3804 20.8125 21.375V34.5C20.8125 35.4946 21.2076 36.4484 21.9108 37.1516C22.6141 37.8549 23.5679 38.25 24.5625 38.25H41.4375C42.4321 38.25 43.3859 37.8549 44.0891 37.1516C44.7924 36.4484 45.1875 35.4946 45.1875 34.5V21.375C45.1875 20.3804 44.7924 19.4266 44.0891 18.7233C43.3859 18.0201 42.4321 17.625 41.4375 17.625ZM43.3125 34.5C43.3125 34.9973 43.115 35.4742 42.7633 35.8258C42.4117 36.1775 41.9348 36.375 41.4375 36.375H24.5625C24.0652 36.375 23.5883 36.1775 23.2367 35.8258C22.885 35.4742 22.6875 34.9973 22.6875 34.5V21.375C22.6875 20.8777 22.885 20.4008 23.2367 20.0492C23.5883 19.6975 24.0652 19.5 24.5625 19.5H41.4375C41.9348 19.5 42.4117 19.6975 42.7633 20.0492C43.115 20.4008 43.3125 20.8777 43.3125 21.375V34.5ZM37.2188 27.9375H28.7812C27.911 27.9375 27.0764 28.2832 26.4611 28.8986C25.8457 29.5139 25.5 30.3485 25.5 31.2188C25.5 32.089 25.8457 32.9236 26.4611 33.5389C27.0764 34.1543 27.911 34.5 28.7812 34.5H37.2188C38.089 34.5 38.9236 34.1543 39.5389 33.5389C40.1543 32.9236 40.5 32.089 40.5 31.2188C40.5 30.3485 40.1543 29.5139 39.5389 28.8986C38.9236 28.2832 38.089 27.9375 37.2188 27.9375ZM34.4062 29.8125V32.625H31.5938V29.8125H34.4062ZM27.375 31.2188C27.375 30.8458 27.5232 30.4881 27.7869 30.2244C28.0506 29.9607 28.4083 29.8125 28.7812 29.8125H29.7188V32.625H28.7812C28.4083 32.625 28.0506 32.4768 27.7869 32.2131C27.5232 31.9494 27.375 31.5917 27.375 31.2188ZM37.2188 32.625H36.2812V29.8125H37.2188C37.5917 29.8125 37.9494 29.9607 38.2131 30.2244C38.4768 30.4881 38.625 30.8458 38.625 31.2188C38.625 31.5917 38.4768 31.9494 38.2131 32.2131C37.9494 32.4768 37.5917 32.625 37.2188 32.625ZM26.4375 24.6562C26.4375 24.3781 26.52 24.1062 26.6745 23.875C26.829 23.6437 27.0486 23.4635 27.3056 23.357C27.5626 23.2506 27.8453 23.2228 28.1181 23.277C28.3909 23.3313 28.6415 23.4652 28.8381 23.6619C29.0348 23.8585 29.1687 24.1091 29.223 24.3819C29.2772 24.6547 29.2494 24.9374 29.143 25.1944C29.0365 25.4514 28.8563 25.671 28.625 25.8255C28.3938 25.98 28.1219 26.0625 27.8438 26.0625C27.4708 26.0625 27.1131 25.9143 26.8494 25.6506C26.5857 25.3869 26.4375 25.0292 26.4375 24.6562ZM36.75 24.6562C36.75 24.3781 36.8325 24.1062 36.987 23.875C37.1415 23.6437 37.3611 23.4635 37.6181 23.357C37.8751 23.2506 38.1578 23.2228 38.4306 23.277C38.7034 23.3313 38.954 23.4652 39.1506 23.6619C39.3473 23.8585 39.4812 24.1091 39.5355 24.3819C39.5897 24.6547 39.5619 24.9374 39.4555 25.1944C39.349 25.4514 39.1688 25.671 38.9375 25.8255C38.7063 25.98 38.4344 26.0625 38.1562 26.0625C37.7833 26.0625 37.4256 25.9143 37.1619 25.6506C36.8982 25.3869 36.75 25.0292 36.75 24.6562Z" fill="white"/>
<defs>
<linearGradient id="paint0_linear_1725_2216" x1="4.54109" y1="9.45464" x2="60.5149" y2="66.9667" gradientUnits="userSpaceOnUse">
<stop stop-color="#084BFF"/>
<stop offset="1" stop-color="#F24B8B"/>
</linearGradient>
<linearGradient id="paint1_linear_1725_2216" x1="10.1817" y1="3.63628" x2="66.1555" y2="61.1484" gradientUnits="userSpaceOnUse">
<stop stop-color="#084BFF"/>
<stop offset="1" stop-color="#F24B8B"/>
</linearGradient>
</defs>
</svg>
