<svg width="60" height="60" viewBox="0 0 60 60" fill="none" xmlns="http://www.w3.org/2000/svg">
<path d="M42.7436 9.81836H11.7934C7.68769 9.81836 4.35938 13.1467 4.35938 17.2524V48.2025C4.35938 52.3082 7.68769 55.6365 11.7934 55.6365H42.7436C46.8492 55.6365 50.1776 52.3082 50.1776 48.2025V17.2524C50.1776 13.1467 46.8492 9.81836 42.7436 9.81836Z" fill="url(#paint0_linear_7192_5657)" fill-opacity="0.2"/>
<path d="M17.6364 4C13.4189 4 10 7.41892 10 11.6364V42.1818C10 46.3993 13.4189 49.8182 17.6364 49.8182H48.1818C52.3993 49.8182 55.8182 46.3993 55.8182 42.1818V11.6364C55.8182 7.41892 52.3993 4 48.1818 4H17.6364Z" fill="url(#paint1_linear_7192_5657)"/>
<path d="M44.2313 17.5212C44.2035 17.0641 44.0094 16.6329 43.6855 16.3091C43.3617 15.9853 42.9306 15.7912 42.4735 15.7634C40.9992 15.6755 37.2317 15.8102 34.1051 18.9356L33.5485 19.4993H26.7129C26.4657 19.4979 26.2207 19.5457 25.9922 19.6398C25.7637 19.734 25.5561 19.8727 25.3817 20.0477L21.3621 24.0696C21.1156 24.316 20.9426 24.6261 20.8626 24.9653C20.7826 25.3045 20.7987 25.6593 20.909 25.9898C21.0194 26.3204 21.2198 26.6136 21.4875 26.8366C21.7553 27.0597 22.08 27.2036 22.425 27.2524L26.9332 27.8817L32.1141 33.0626L32.7434 37.5731C32.7918 37.9182 32.9357 38.2429 33.159 38.5104C33.3822 38.778 33.6758 38.9778 34.0067 39.0872C34.1993 39.1516 34.4012 39.1844 34.6043 39.1845C34.8503 39.1849 35.094 39.1367 35.3212 39.0426C35.5485 38.9485 35.7549 38.8103 35.9285 38.636L39.9504 34.6165C40.1255 34.442 40.2642 34.2345 40.3583 34.0059C40.4525 33.7774 40.5002 33.5324 40.4988 33.2852V26.4497L41.0578 25.8907C44.1844 22.7642 44.3192 18.9966 44.2313 17.5212ZM26.7129 21.3743H31.6735L27.041 26.0056L22.6863 25.3985L26.7129 21.3743ZM35.4328 20.2669C36.3337 19.3605 37.4176 18.6567 38.6121 18.2027C39.8066 17.7486 41.0843 17.5546 42.3598 17.6337C42.4419 18.9098 42.25 20.1888 41.7968 21.3846C41.3436 22.5804 40.6397 23.6653 39.7324 24.5665L32.9988 31.2977L28.7004 26.9993L35.4328 20.2669ZM38.6238 33.2852L34.6008 37.3118L33.9926 32.956L38.6238 28.3247V33.2852ZM29.9332 34.3985C29.4059 35.554 27.6422 38.2493 22.6863 38.2493C22.4377 38.2493 22.1992 38.1505 22.0234 37.9747C21.8476 37.7989 21.7488 37.5605 21.7488 37.3118C21.7488 32.356 24.4442 30.5923 25.5996 30.0638C25.7117 30.0127 25.8327 29.9841 25.9557 29.9798C26.0788 29.9755 26.2015 29.9954 26.3168 30.0385C26.4322 30.0816 26.5379 30.147 26.628 30.231C26.7181 30.3149 26.7907 30.4158 26.8418 30.5278C26.8929 30.6399 26.9214 30.7609 26.9258 30.8839C26.9301 31.007 26.9101 31.1297 26.867 31.245C26.824 31.3604 26.7586 31.4661 26.6746 31.5562C26.5907 31.6463 26.4898 31.7189 26.3778 31.77C25.6242 32.1134 23.9613 33.2185 23.6684 36.3298C26.7797 36.0368 27.8871 34.3739 28.2281 33.6204C28.2792 33.5084 28.3519 33.4075 28.442 33.3235C28.532 33.2396 28.6378 33.1742 28.7531 33.1311C28.8685 33.088 28.9912 33.0681 29.1142 33.0724C29.2373 33.0767 29.3583 33.1052 29.4703 33.1563C29.5824 33.2074 29.6832 33.2801 29.7672 33.3702C29.8511 33.4602 29.9165 33.566 29.9596 33.6813C30.0027 33.7967 30.0227 33.9194 30.0183 34.0424C30.014 34.1655 29.9855 34.2865 29.9344 34.3985H29.9332Z" fill="white"/>
<defs>
<linearGradient id="paint0_linear_7192_5657" x1="4.54109" y1="9.45464" x2="60.5149" y2="66.9667" gradientUnits="userSpaceOnUse">
<stop stop-color="#084BFF"/>
<stop offset="1" stop-color="#F24B8B"/>
</linearGradient>
<linearGradient id="paint1_linear_7192_5657" x1="10.1817" y1="3.63628" x2="66.1555" y2="61.1484" gradientUnits="userSpaceOnUse">
<stop stop-color="#084BFF"/>
<stop offset="1" stop-color="#F24B8B"/>
</linearGradient>
</defs>
</svg>
