<svg width="60" height="60" viewBox="0 0 60 60" fill="none" xmlns="http://www.w3.org/2000/svg">
<path d="M42.7436 9.81836H11.7934C7.68769 9.81836 4.35938 13.1467 4.35938 17.2524V48.2025C4.35938 52.3082 7.68769 55.6365 11.7934 55.6365H42.7436C46.8492 55.6365 50.1776 52.3082 50.1776 48.2025V17.2524C50.1776 13.1467 46.8492 9.81836 42.7436 9.81836Z" fill="url(#paint0_linear_7192_5636)" fill-opacity="0.2"/>
<path d="M17.6364 4C13.4189 4 10 7.41892 10 11.6364V42.1818C10 46.3993 13.4189 49.8182 17.6364 49.8182H48.1818C52.3993 49.8182 55.8182 46.3993 55.8182 42.1818V11.6364C55.8182 7.41892 52.3993 4 48.1818 4H17.6364Z" fill="url(#paint1_linear_7192_5636)"/>
<path d="M46.0281 23.3975C45.9109 23.0372 45.6896 22.7196 45.3923 22.4848C45.0949 22.25 44.7347 22.1084 44.357 22.078L37.4429 21.5201L34.7734 15.0643C34.629 14.7125 34.3833 14.4116 34.0675 14.1998C33.7517 13.9881 33.38 13.875 32.9998 13.875C32.6195 13.875 32.2478 13.9881 31.932 14.1998C31.6162 14.4116 31.3705 14.7125 31.2261 15.0643L28.5589 21.519L21.6414 22.078C21.263 22.11 20.9026 22.2529 20.6051 22.4888C20.3077 22.7248 20.0865 23.0433 19.9693 23.4044C19.852 23.7655 19.844 24.1531 19.9461 24.5188C20.0482 24.8845 20.2559 25.2119 20.5433 25.46L25.8167 30.0104L24.2101 36.8143C24.1202 37.1839 24.1422 37.5719 24.2733 37.929C24.4044 38.2862 24.6386 38.5963 24.9462 38.82C25.2539 39.0438 25.621 39.1711 26.0012 39.1858C26.3813 39.2005 26.7572 39.1019 27.0812 38.9026L32.9992 35.2604L38.9206 38.9026C39.2448 39.0996 39.6199 39.1962 39.9988 39.1804C40.3778 39.1646 40.7436 39.0371 41.0502 38.8138C41.3568 38.5905 41.5904 38.2815 41.7218 37.9257C41.8531 37.5699 41.8762 37.1832 41.7882 36.8143L40.1757 30.0092L45.4492 25.4588C45.7389 25.2111 45.9485 24.883 46.0516 24.516C46.1546 24.1491 46.1464 23.7598 46.0281 23.3975ZM44.2304 24.0385L38.5234 28.9604C38.3932 29.0726 38.2964 29.2184 38.2435 29.3818C38.1906 29.5453 38.1836 29.7202 38.2234 29.8873L39.9671 37.2467C39.9716 37.2569 39.9721 37.2683 39.9684 37.2788C39.9647 37.2893 39.9571 37.2979 39.9472 37.303C39.9261 37.3194 39.9203 37.3159 39.9027 37.303L33.4902 33.3596C33.3425 33.2688 33.1725 33.2207 32.9992 33.2207C32.8258 33.2207 32.6558 33.2688 32.5081 33.3596L26.0956 37.3053C26.0781 37.3159 26.0734 37.3194 26.0511 37.3053C26.0412 37.3003 26.0336 37.2916 26.0299 37.2812C26.0262 37.2707 26.0267 37.2592 26.0312 37.2491L27.7749 29.8897C27.8147 29.7225 27.8077 29.5476 27.7548 29.3842C27.7019 29.2207 27.6051 29.0749 27.4749 28.9627L21.7679 24.0409C21.7539 24.0291 21.741 24.0186 21.7527 23.9823C21.7644 23.9459 21.7738 23.9506 21.7914 23.9483L29.282 23.3436C29.4538 23.3289 29.6182 23.267 29.7571 23.1649C29.8961 23.0627 30.0041 22.9243 30.0695 22.7647L32.9546 15.7791C32.964 15.7592 32.9675 15.7498 32.9956 15.7498C33.0238 15.7498 33.0273 15.7592 33.0367 15.7791L35.9289 22.7647C35.9948 22.9243 36.1036 23.0627 36.2431 23.1644C36.3827 23.2661 36.5477 23.3273 36.7199 23.3412L44.2105 23.9459C44.2281 23.9459 44.2386 23.9459 44.2492 23.9799C44.2597 24.0139 44.2492 24.0268 44.2304 24.0385Z" fill="white"/>
<defs>
<linearGradient id="paint0_linear_7192_5636" x1="4.54109" y1="9.45464" x2="60.5149" y2="66.9667" gradientUnits="userSpaceOnUse">
<stop stop-color="#084BFF"/>
<stop offset="1" stop-color="#F24B8B"/>
</linearGradient>
<linearGradient id="paint1_linear_7192_5636" x1="10.1817" y1="3.63628" x2="66.1555" y2="61.1484" gradientUnits="userSpaceOnUse">
<stop stop-color="#084BFF"/>
<stop offset="1" stop-color="#F24B8B"/>
</linearGradient>
</defs>
</svg>
