<svg width="60" height="60" viewBox="0 0 60 60" fill="none" xmlns="http://www.w3.org/2000/svg">
<path d="M42.7475 9.81836H11.7973C7.6916 9.81836 4.36328 13.1467 4.36328 17.2524V48.2025C4.36328 52.3082 7.6916 55.6365 11.7973 55.6365H42.7475C46.8531 55.6365 50.1815 52.3082 50.1815 48.2025V17.2524C50.1815 13.1467 46.8531 9.81836 42.7475 9.81836Z" fill="url(#paint0_linear_1239_5794)" fill-opacity="0.2"/>
<path d="M17.4547 4C13.2373 4 9.81836 7.41892 9.81836 11.6364V42.1818C9.81836 46.3993 13.2373 49.8182 17.4547 49.8182H48.0002C52.2176 49.8182 55.6365 46.3993 55.6365 42.1818V11.6364C55.6365 7.41892 52.2176 4 48.0002 4H17.4547Z" fill="url(#paint1_linear_1239_5794)"/>
<path d="M33 13.25V40.75" stroke="white" stroke-width="2.2" stroke-linecap="round" stroke-linejoin="round"/>
<path d="M39.25 18.25H29.875C28.7147 18.25 27.6019 18.7109 26.7814 19.5314C25.9609 20.3519 25.5 21.4647 25.5 22.625C25.5 23.7853 25.9609 24.8981 26.7814 25.7186C27.6019 26.5391 28.7147 27 29.875 27H36.125C37.2853 27 38.3981 27.4609 39.2186 28.2814C40.0391 29.1019 40.5 30.2147 40.5 31.375C40.5 32.5353 40.0391 33.6481 39.2186 34.4686C38.3981 35.2891 37.2853 35.75 36.125 35.75H25.5" stroke="white" stroke-width="2.2" stroke-linecap="round" stroke-linejoin="round"/>
<defs>
<linearGradient id="paint0_linear_1239_5794" x1="4.54499" y1="9.45464" x2="60.5188" y2="66.9667" gradientUnits="userSpaceOnUse">
<stop stop-color="#084BFF"/>
<stop offset="1" stop-color="#F24B8B"/>
</linearGradient>
<linearGradient id="paint1_linear_1239_5794" x1="10.0001" y1="3.63628" x2="65.9739" y2="61.1484" gradientUnits="userSpaceOnUse">
<stop stop-color="#084BFF"/>
<stop offset="1" stop-color="#F24B8B"/>
</linearGradient>
</defs>
</svg>
