<svg width="34" height="34" viewBox="0 0 34 34" fill="none" xmlns="http://www.w3.org/2000/svg">
<circle cx="17" cy="16.75" r="15.75" fill="white"/>
<circle cx="17" cy="16.75" r="15.75" fill="#00A01A"/>
<circle cx="17" cy="16.75" r="15.75" stroke="white" stroke-width="1.5"/>
<path d="M27 16.75C27 17.497 26.0102 18.1202 25.8549 18.8191C25.6947 19.5408 26.3185 20.5407 26.0116 21.1918C25.6996 21.8536 24.5436 21.976 24.1001 22.5444C23.6544 23.1157 23.7934 24.2958 23.2353 24.752C22.6798 25.2059 21.5871 24.8063 20.9405 25.1256C20.3043 25.4397 19.9305 26.5661 19.2254 26.7301C18.5425 26.889 17.7298 26.0437 17 26.0437C16.2702 26.0437 15.4575 26.889 14.7746 26.7301C14.0695 26.5661 13.6957 25.4397 13.0595 25.1256C12.4129 24.8063 11.3202 25.2059 10.7647 24.752C10.2066 24.2958 10.3456 23.1157 9.8999 22.5444C9.45638 21.976 8.30038 21.8536 7.98841 21.1918C7.6815 20.5407 8.30533 19.5408 8.14505 18.8191C7.98983 18.1202 7 17.497 7 16.75C7 16.0031 7.98983 15.3799 8.14505 14.681C8.30533 13.9593 7.6815 12.9594 7.98841 12.3083C8.30039 11.6464 9.45638 11.5241 9.8999 10.9556C10.3456 10.3843 10.2066 9.20427 10.7647 8.74811C11.3202 8.29419 12.4129 8.69379 13.0595 8.37451C13.6957 8.06035 14.0695 6.93395 14.7746 6.76987C15.4575 6.61107 16.2702 7.45635 17 7.45635C17.7298 7.45635 18.5425 6.61107 19.2254 6.76987C19.9305 6.93395 20.3043 8.06035 20.9405 8.37451C21.5871 8.69379 22.6798 8.29419 23.2353 8.74811C23.7934 9.20427 23.6544 10.3843 24.1001 10.9556C24.5436 11.5241 25.6996 11.6464 26.0116 12.3083C26.3185 12.9594 25.6947 13.9593 25.8549 14.681C26.0102 15.3799 27 16.0031 27 16.75Z" fill="white"/>
<path d="M21.5157 13.3965C21.1013 12.9821 20.427 12.9821 20.0126 13.3965L15.5585 17.8506C15.5488 17.8603 15.5331 17.8603 15.5234 17.8506L14.0757 16.4029C13.6612 15.9885 12.9869 15.9885 12.5726 16.4029C12.1581 16.8173 12.1581 17.4916 12.5726 17.906L14.7894 20.1228C14.9901 20.3235 15.257 20.4341 15.5409 20.4341C15.8248 20.4341 16.0917 20.3235 16.2925 20.1228L21.5157 14.8996C21.93 14.4852 21.93 13.8108 21.5157 13.3965Z" fill="#00A01A"/>
</svg>
