<svg width="60" height="60" viewBox="0 0 60 60" fill="none" xmlns="http://www.w3.org/2000/svg">
<path d="M42.7436 9.81836H11.7934C7.68769 9.81836 4.35938 13.1467 4.35938 17.2524V48.2025C4.35938 52.3082 7.68769 55.6365 11.7934 55.6365H42.7436C46.8492 55.6365 50.1776 52.3082 50.1776 48.2025V17.2524C50.1776 13.1467 46.8492 9.81836 42.7436 9.81836Z" fill="url(#paint0_linear_7192_5649)" fill-opacity="0.2"/>
<path d="M17.6364 4C13.4189 4 10 7.41892 10 11.6364V42.1818C10 46.3993 13.4189 49.8182 17.6364 49.8182H48.1818C52.3993 49.8182 55.8182 46.3993 55.8182 42.1818V11.6364C55.8182 7.41892 52.3993 4 48.1818 4H17.6364Z" fill="url(#paint1_linear_7192_5649)"/>
<g clip-path="url(#clip0_7192_5649)">
<path d="M47.7263 27.6635L44.9138 30.476C44.8267 30.5632 44.7233 30.6323 44.6095 30.6795C44.4957 30.7267 44.3737 30.751 44.2505 30.751C44.1273 30.751 44.0053 30.7267 43.8915 30.6795C43.7777 30.6323 43.6743 30.5632 43.5872 30.476L40.7747 27.6635C40.5988 27.4876 40.5 27.249 40.5 27.0002C40.5 26.7514 40.5988 26.5128 40.7747 26.3369C40.9507 26.161 41.1892 26.0622 41.438 26.0622C41.6868 26.0622 41.9254 26.161 42.1013 26.3369L43.313 27.5498V27.0002C43.3141 24.8166 42.622 22.689 41.3364 20.9239C40.0509 19.1588 38.2382 17.8473 36.1595 17.1784C34.0809 16.5095 31.8435 16.5177 29.7698 17.2018C27.6961 17.8858 25.8931 19.2105 24.6204 20.985C24.4753 21.187 24.2558 21.3231 24.0104 21.3633C23.7649 21.4035 23.5135 21.3446 23.3115 21.1994C23.1094 21.0543 22.9734 20.8348 22.9331 20.5894C22.8929 20.3439 22.9519 20.0925 23.097 19.8904C24.6011 17.7934 26.732 16.2279 29.1828 15.4195C31.6336 14.6111 34.2778 14.6016 36.7343 15.3922C39.1909 16.1828 41.3331 17.7328 42.8524 19.8189C44.3716 21.905 45.1894 24.4195 45.188 27.0002V27.5498L46.3997 26.3369C46.5757 26.161 46.8142 26.0622 47.063 26.0622C47.3118 26.0622 47.5504 26.161 47.7263 26.3369C47.9022 26.5128 48.001 26.7514 48.001 27.0002C48.001 27.249 47.9022 27.4876 47.7263 27.6635ZM42.9005 34.1088C41.396 36.2043 39.2654 37.7683 36.8154 38.5758C34.3654 39.3832 31.7223 39.3925 29.2667 38.6022C26.8111 37.8119 24.6696 36.2628 23.1505 34.1779C21.6313 32.093 20.8129 29.5799 20.813 27.0002V26.4506L19.6013 27.6635C19.4254 27.8394 19.1868 27.9382 18.938 27.9382C18.6892 27.9382 18.4507 27.8394 18.2747 27.6635C18.0988 27.4876 18 27.249 18 27.0002C18 26.7514 18.0988 26.5128 18.2747 26.3369L21.0872 23.5244C21.1743 23.4373 21.2777 23.3681 21.3915 23.3209C21.5053 23.2738 21.6273 23.2495 21.7505 23.2495C21.8737 23.2495 21.9957 23.2738 22.1095 23.3209C22.2233 23.3681 22.3267 23.4373 22.4138 23.5244L25.2263 26.3369C25.4022 26.5128 25.501 26.7514 25.501 27.0002C25.501 27.249 25.4022 27.4876 25.2263 27.6635C25.0504 27.8394 24.8118 27.9382 24.563 27.9382C24.3142 27.9382 24.0757 27.8394 23.8997 27.6635L22.688 26.4506V27.0002C22.6858 29.5247 23.6136 31.9615 25.2943 33.8451C26.3399 32.33 27.8101 31.1578 29.5201 30.476C28.6015 29.7525 27.9313 28.7608 27.6025 27.6388C27.2737 26.5167 27.3028 25.3201 27.6856 24.2153C28.0684 23.1105 28.786 22.1525 29.7386 21.4745C30.6911 20.7964 31.8313 20.4321 33.0005 20.4321C34.1698 20.4321 35.3099 20.7964 36.2625 21.4745C37.215 22.1525 37.9326 23.1105 38.3155 24.2153C38.6983 25.3201 38.7273 26.5167 38.3986 27.6388C38.0698 28.7608 37.3995 29.7525 36.481 30.476C38.1925 31.1579 39.6638 32.3315 40.7091 33.8487C40.9461 33.5824 41.1695 33.3044 41.3783 33.0155C41.5234 32.8134 41.7429 32.6773 41.9883 32.6371C42.2338 32.5969 42.4852 32.6559 42.6872 32.801C42.8893 32.9461 43.0253 33.1656 43.0656 33.4111C43.1058 33.6566 43.0468 33.908 42.9017 34.11L42.9005 34.1088ZM33.0005 29.8127C33.7422 29.8127 34.4672 29.5928 35.0839 29.1807C35.7006 28.7687 36.1812 28.183 36.4651 27.4978C36.7489 26.8126 36.8232 26.0586 36.6785 25.3311C36.5338 24.6037 36.1766 23.9355 35.6522 23.4111C35.1277 22.8866 34.4595 22.5295 33.7321 22.3848C33.0047 22.2401 32.2507 22.3143 31.5655 22.5982C30.8802 22.882 30.2946 23.3626 29.8825 23.9793C29.4705 24.596 29.2505 25.321 29.2505 26.0627C29.2505 27.0573 29.6456 28.0111 30.3489 28.7144C31.0521 29.4176 32.006 29.8127 33.0005 29.8127ZM33.0005 37.3127C35.2885 37.3097 37.5109 36.5477 39.3193 35.1459C38.6411 34.0852 37.7068 33.2123 36.6025 32.6077C35.4982 32.0031 34.2595 31.6861 33.0005 31.6861C31.7415 31.6861 30.5028 32.0031 29.3986 32.6077C28.2943 33.2123 27.36 34.0852 26.6818 35.1459C28.4874 36.5527 30.7116 37.3154 33.0005 37.3127Z" fill="white"/>
</g>
<defs>
<linearGradient id="paint0_linear_7192_5649" x1="4.54109" y1="9.45464" x2="60.5149" y2="66.9667" gradientUnits="userSpaceOnUse">
<stop stop-color="#084BFF"/>
<stop offset="1" stop-color="#F24B8B"/>
</linearGradient>
<linearGradient id="paint1_linear_7192_5649" x1="10.1817" y1="3.63628" x2="66.1555" y2="61.1484" gradientUnits="userSpaceOnUse">
<stop stop-color="#084BFF"/>
<stop offset="1" stop-color="#F24B8B"/>
</linearGradient>
<clipPath id="clip0_7192_5649">
<rect width="30" height="30" fill="white" transform="translate(18 12)"/>
</clipPath>
</defs>
</svg>
