<svg width="60" height="60" viewBox="0 0 60 60" fill="none" xmlns="http://www.w3.org/2000/svg">
<path d="M42.7436 9.81836H11.7934C7.68769 9.81836 4.35938 13.1467 4.35938 17.2524V48.2025C4.35938 52.3082 7.68769 55.6365 11.7934 55.6365H42.7436C46.8492 55.6365 50.1776 52.3082 50.1776 48.2025V17.2524C50.1776 13.1467 46.8492 9.81836 42.7436 9.81836Z" fill="url(#paint0_linear_7192_5618)" fill-opacity="0.2"/>
<path d="M17.6364 4C13.4189 4 10 7.41892 10 11.6364V42.1818C10 46.3993 13.4189 49.8182 17.6364 49.8182H48.1818C52.3993 49.8182 55.8182 46.3993 55.8182 42.1818V11.6364C55.8182 7.41892 52.3993 4 48.1818 4H17.6364Z" fill="url(#paint1_linear_7192_5618)"/>
<path d="M45.8513 14.149C45.7642 14.0618 45.6608 13.9927 45.547 13.9455C45.4332 13.8983 45.3112 13.874 45.188 13.874C45.0648 13.874 44.9428 13.8983 44.829 13.9455C44.7152 13.9927 44.6118 14.0618 44.5247 14.149L38.3841 20.2908L37.7548 19.6603C37.0508 18.9583 36.0971 18.5641 35.1029 18.5641C34.1086 18.5641 33.155 18.9583 32.4509 19.6603L29.7193 22.3931L28.9763 21.649C28.8004 21.4731 28.5618 21.3742 28.313 21.3742C28.0642 21.3742 27.8257 21.4731 27.6497 21.649C27.4738 21.8249 27.375 22.0635 27.375 22.3123C27.375 22.561 27.4738 22.7996 27.6497 22.9755L28.3939 23.7185L25.6611 26.4502C25.3128 26.7984 25.0365 27.2118 24.8479 27.6668C24.6594 28.1219 24.5624 28.6096 24.5624 29.1021C24.5624 29.5946 24.6594 30.0823 24.8479 30.5374C25.0365 30.9924 25.3128 31.4058 25.6611 31.7541L26.2915 32.3834L20.1497 38.524C20.0626 38.6111 19.9935 38.7145 19.9464 38.8283C19.8993 38.9421 19.875 39.0641 19.875 39.1873C19.875 39.3104 19.8993 39.4324 19.9464 39.5462C19.9935 39.66 20.0626 39.7634 20.1497 39.8505C20.3257 40.0265 20.5642 40.1253 20.813 40.1253C20.9362 40.1253 21.0582 40.101 21.172 40.0539C21.2858 40.0067 21.3892 39.9376 21.4763 39.8505L27.6169 33.7087L28.2462 34.3392C28.5945 34.6875 29.0079 34.9638 29.4629 35.1523C29.9179 35.3408 30.4056 35.4379 30.8982 35.4379C31.3907 35.4379 31.8784 35.3408 32.3334 35.1523C32.7885 34.9638 33.2019 34.6875 33.5501 34.3392L36.2818 31.6064L37.0247 32.3505C37.1118 32.4376 37.2153 32.5067 37.3291 32.5539C37.4429 32.601 37.5648 32.6253 37.688 32.6253C37.8112 32.6253 37.9332 32.601 38.047 32.5539C38.1608 32.5067 38.2642 32.4376 38.3513 32.3505C38.4384 32.2634 38.5075 32.16 38.5546 32.0462C38.6018 31.9324 38.626 31.8104 38.626 31.6873C38.626 31.5641 38.6018 31.4421 38.5546 31.3283C38.5075 31.2145 38.4384 31.1111 38.3513 31.024L37.6072 30.281L40.34 27.5494C40.6883 27.2011 40.9646 26.7877 41.1531 26.3327C41.3416 25.8777 41.4386 25.3899 41.4386 24.8974C41.4386 24.4049 41.3416 23.9172 41.1531 23.4622C40.9646 23.0071 40.6883 22.5937 40.34 22.2455L39.7095 21.6162L45.8513 15.4755C45.9385 15.3885 46.0076 15.2851 46.0548 15.1713C46.102 15.0575 46.1263 14.9355 46.1263 14.8123C46.1263 14.6891 46.102 14.5671 46.0548 14.4533C46.0076 14.3394 45.9385 14.236 45.8513 14.149ZM32.2236 33.0162C31.872 33.3675 31.3952 33.5649 30.8982 33.5649C30.4011 33.5649 29.9244 33.3675 29.5728 33.0162L26.9876 30.4275C26.6363 30.0759 26.4389 29.5992 26.4389 29.1021C26.4389 28.605 26.6363 28.1283 26.9876 27.7767L29.7193 25.0439L34.9564 30.281L32.2236 33.0162ZM39.0134 26.2263L36.2818 28.9556L31.0447 23.7185L33.7775 20.9869C34.1291 20.6355 34.6058 20.4381 35.1029 20.4381C35.5999 20.4381 36.0767 20.6355 36.4283 20.9869L39.0134 23.565C39.1884 23.7392 39.3273 23.9463 39.4221 24.1744C39.5169 24.4024 39.5657 24.6469 39.5657 24.8939C39.5657 25.1409 39.5169 25.3854 39.4221 25.6134C39.3273 25.8415 39.1884 26.0486 39.0134 26.2228V26.2263ZM28.3798 16.1013C28.2866 15.8704 28.2889 15.6119 28.3862 15.3827C28.4836 15.1535 28.668 14.9723 28.899 14.8791C29.1299 14.7858 29.3884 14.7881 29.6176 14.8855C29.8468 14.9828 30.028 15.1673 30.1212 15.3982L31.0587 17.7419C31.1049 17.8563 31.1281 17.9786 31.127 18.1019C31.1259 18.2252 31.1005 18.3471 31.0523 18.4606C31.0041 18.5741 30.934 18.677 30.846 18.7634C30.7581 18.8498 30.6539 18.918 30.5396 18.9642C30.4252 19.0104 30.3029 19.0336 30.1796 19.0325C30.0563 19.0314 29.9344 19.006 29.8209 18.9578C29.7074 18.9096 29.6045 18.8395 29.5181 18.7515C29.4317 18.6635 29.3635 18.5594 29.3173 18.4451L28.3798 16.1013ZM20.8798 22.8982C20.9258 22.7837 20.994 22.6795 21.0803 22.5914C21.1667 22.5033 21.2696 22.4331 21.3832 22.3849C21.4967 22.3367 21.6187 22.3113 21.7421 22.3103C21.8654 22.3093 21.9878 22.3327 22.1021 22.3791L24.4458 23.3166C24.5602 23.3627 24.6643 23.431 24.7523 23.5174C24.8402 23.6038 24.9103 23.7067 24.9585 23.8202C25.0068 23.9337 25.0321 24.0556 25.0332 24.1789C25.0343 24.3022 25.0111 24.4245 24.965 24.5388C24.9188 24.6532 24.8506 24.7573 24.7642 24.8453C24.6777 24.9332 24.5749 25.0033 24.4614 25.0515C24.3479 25.0997 24.226 25.1251 24.1027 25.1262C23.9794 25.1273 23.8571 25.1041 23.7427 25.058L21.399 24.1205C21.2845 24.0745 21.1802 24.0063 21.0921 23.9199C21.0041 23.8336 20.9339 23.7306 20.8857 23.6171C20.8374 23.5035 20.8121 23.3816 20.8111 23.2582C20.8101 23.1349 20.8334 23.0125 20.8798 22.8982ZM45.1212 31.1013C45.0755 31.2157 45.0078 31.3199 44.9218 31.4081C44.8358 31.4962 44.7333 31.5666 44.6201 31.6151C44.5069 31.6637 44.3853 31.6894 44.2622 31.691C44.139 31.6925 44.0168 31.6697 43.9025 31.624L41.5587 30.6865C41.4442 30.6405 41.3397 30.5725 41.2515 30.4862C41.1632 30.3999 41.0928 30.2971 41.0443 30.1836C40.9957 30.0701 40.97 29.9481 40.9686 29.8247C40.9672 29.7013 40.9901 29.5788 41.0361 29.4642C41.082 29.3496 41.1501 29.2452 41.2363 29.157C41.3226 29.0687 41.4255 28.9983 41.539 28.9497C41.6525 28.9012 41.7744 28.8755 41.8978 28.8741C42.0213 28.8727 42.1438 28.8956 42.2583 28.9416L44.6021 29.8791C44.7166 29.9251 44.8208 29.9932 44.9089 30.0796C44.997 30.166 45.0671 30.2689 45.1154 30.3824C45.1636 30.496 45.1889 30.6179 45.1899 30.7413C45.191 30.8647 45.1676 30.987 45.1212 31.1013ZM37.6212 37.9052C37.6669 38.0196 37.6897 38.1418 37.6881 38.2649C37.6866 38.3881 37.6608 38.5097 37.6123 38.6229C37.5638 38.736 37.4934 38.8385 37.4053 38.9245C37.3171 39.0105 37.2129 39.0783 37.0986 39.124C36.9842 39.1697 36.862 39.1924 36.7389 39.1909C36.6157 39.1894 36.4941 39.1636 36.3809 39.1151C36.2678 39.0665 36.1653 38.9962 36.0793 38.908C35.9933 38.8199 35.9255 38.7157 35.8798 38.6013L34.9423 36.2576C34.8491 36.0266 34.8514 35.7681 34.9487 35.5389C35.0461 35.3097 35.2305 35.1285 35.4615 35.0353C35.6924 34.9421 35.9509 34.9444 36.1801 35.0417C36.4093 35.1391 36.5905 35.3235 36.6837 35.5544L37.6212 37.9052Z" fill="white"/>
<defs>
<linearGradient id="paint0_linear_7192_5618" x1="4.54109" y1="9.45464" x2="60.5149" y2="66.9667" gradientUnits="userSpaceOnUse">
<stop stop-color="#084BFF"/>
<stop offset="1" stop-color="#F24B8B"/>
</linearGradient>
<linearGradient id="paint1_linear_7192_5618" x1="10.1817" y1="3.63628" x2="66.1555" y2="61.1484" gradientUnits="userSpaceOnUse">
<stop stop-color="#084BFF"/>
<stop offset="1" stop-color="#F24B8B"/>
</linearGradient>
</defs>
</svg>
