<svg width="24" height="24" viewBox="0 0 24 24" fill="none" xmlns="http://www.w3.org/2000/svg">
<g clip-path="url(#clip0_1239_5764)">
<path d="M0.976562 2.16359C0.976562 1.26322 1.72496 0.532888 2.64821 0.532888H21.9259C22.8491 0.532888 23.5975 1.26322 23.5975 2.16359V21.6667C23.5975 22.5673 22.8491 23.2974 21.9259 23.2974H2.64821C1.72496 23.2974 0.976562 22.5673 0.976562 21.6667V2.16359Z" fill="white"/>
<path fill-rule="evenodd" clip-rule="evenodd" d="M7.83156 19.5894V9.30992H4.41487V19.5894H7.83156ZM6.1232 7.90644C7.31467 7.90644 8.05626 7.11709 8.05626 6.13064C8.03405 5.12198 7.31467 4.35454 6.1458 4.35454C4.97705 4.35454 4.21289 5.12198 4.21289 6.13064C4.21289 7.11709 4.95432 7.90644 6.10093 7.90644H6.1232Z" fill="#0E37FF"/>
<path fill-rule="evenodd" clip-rule="evenodd" d="M9.72461 19.5894H13.1413V13.8489C13.1413 13.5417 13.1635 13.2347 13.2537 13.0151C13.5007 12.4013 14.0629 11.7656 15.0067 11.7656C16.2431 11.7656 16.7376 12.7082 16.7376 14.0901V19.5894H20.154V13.6953C20.154 10.5379 18.4684 9.06871 16.2205 9.06871C14.3773 9.06871 13.5681 10.099 13.1185 10.8007H13.1414V9.30992H9.7247C9.76954 10.2745 9.72461 19.5894 9.72461 19.5894Z" fill="#0E37FF"/>
</g>
<defs>
<clipPath id="clip0_1239_5764">
<rect width="24" height="24" fill="white"/>
</clipPath>
</defs>
</svg>
