<svg width="190" height="37" viewBox="0 0 190 37" fill="none" xmlns="http://www.w3.org/2000/svg"><path d="M37.2637 24.1266C37.7959 24.3206 38.3525 24.4855 38.9287 24.6309C39.5098 24.7764 40.2227 24.8491 41.0576 24.8491C42.376 24.8491 43.3623 24.5824 44.0166 24.0442C44.666 23.5059 44.9932 22.7786 44.9932 21.8669C44.9932 21.4208 44.9248 21.0329 44.7881 20.7128C44.6514 20.3928 44.4463 20.1164 44.1729 19.8836C43.8994 19.6509 43.5576 19.4423 43.1475 19.2484C42.7324 19.0544 42.2539 18.8459 41.707 18.6228L40.335 18.07C39.8662 17.8761 39.4414 17.6627 39.0508 17.4348C38.665 17.202 38.333 16.9159 38.0498 16.5814C37.7666 16.2419 37.5469 15.854 37.3857 15.4127C37.2246 14.9714 37.1416 14.4477 37.1416 13.8367C37.1416 12.3772 37.6396 11.2376 38.6406 10.4133C39.6367 9.5889 41.043 9.17188 42.8447 9.17188C43.6162 9.17188 44.3486 9.23976 45.042 9.36584C45.7354 9.49192 46.3457 9.65679 46.8779 9.8459C46.7998 10.5199 46.624 11.1843 46.3457 11.8438C45.9111 11.6837 45.4082 11.5383 44.8369 11.4073C44.2656 11.2812 43.6211 11.2182 42.8936 11.2182C41.8779 11.2182 41.0967 11.417 40.5498 11.8292C40.0029 12.2365 39.7295 12.8524 39.7295 13.667C39.7295 14.0065 39.7979 14.3023 39.9346 14.569C40.0713 14.8357 40.252 15.0684 40.4766 15.2672C40.7012 15.4661 40.9697 15.6503 41.2725 15.8055C41.5801 15.9704 41.9023 16.111 42.2393 16.2419L43.5918 16.7705C44.2363 17.0275 44.8076 17.2942 45.3057 17.5754C45.8037 17.8567 46.2334 18.1864 46.5898 18.5598C46.9414 18.938 47.21 19.3842 47.4004 19.8982C47.5859 20.4122 47.6738 21.0135 47.6738 21.702C47.6738 23.3508 47.1025 24.6552 45.96 25.6105C44.8174 26.5609 43.2158 27.0361 41.1553 27.0361C40.6572 27.0361 40.2031 27.0216 39.8027 26.9925C39.4023 26.9585 39.0264 26.91 38.6797 26.847C38.333 26.7839 37.9961 26.7015 37.6787 26.6094C37.3564 26.5124 37.0244 26.4057 36.6875 26.2942C36.7168 25.9402 36.7949 25.5814 36.9072 25.2128C37.0146 24.8394 37.1367 24.4806 37.2637 24.1266Z" fill="white"/><path d="M50.4531 14.4143C50.6338 14.3804 50.834 14.3561 51.0586 14.3367C51.2881 14.3222 51.4785 14.3173 51.6396 14.3173C51.8203 14.3173 52.0156 14.3222 52.2402 14.3367C52.4697 14.3561 52.6699 14.3804 52.8457 14.4143V21.1692C52.8457 21.9402 52.9189 22.5754 53.0605 23.0797C53.207 23.5889 53.4268 23.9817 53.7148 24.2726C54.0078 24.5587 54.3594 24.7575 54.7793 24.8691C55.1992 24.9806 55.6826 25.0388 56.2295 25.0388C57.0498 25.0388 57.7529 24.9467 58.3291 24.7721V14.4095C58.5098 14.3804 58.7051 14.3561 58.9248 14.3367C59.1397 14.3222 59.335 14.3125 59.5156 14.3125C59.6914 14.3125 59.8916 14.3222 60.1064 14.3367C60.3262 14.3513 60.5215 14.3755 60.6973 14.4095V26.3578C60.1357 26.5226 59.4619 26.673 58.6807 26.8184C57.8994 26.959 57.0889 27.0318 56.2539 27.0318C55.4678 27.0318 54.7207 26.9639 54.0176 26.8281C53.3193 26.6923 52.7041 26.4159 52.1719 25.9989C51.6396 25.5819 51.2197 25 50.917 24.2435C50.6094 23.4919 50.458 22.4978 50.458 21.2613V14.4143H50.4531Z" fill="white"/><path d="M80.3594 21.1708C80.3887 22.514 80.7402 23.5032 81.4092 24.1288C82.0781 24.7543 83.0644 25.0647 84.3682 25.0647C85.5107 25.0647 86.5996 24.8658 87.6299 24.4634C87.7568 24.7058 87.8643 24.9968 87.9424 25.3411C88.0254 25.6853 88.0693 26.0296 88.0889 26.3642C87.5566 26.5873 86.9707 26.757 86.3359 26.8685C85.7012 26.9801 84.9932 27.0383 84.2217 27.0383C83.0937 27.0383 82.1269 26.8831 81.3213 26.5679C80.5205 26.2575 79.8516 25.8163 79.334 25.2489C78.8066 24.6767 78.4258 24.0075 78.1816 23.2268C77.9424 22.451 77.8203 21.5975 77.8203 20.6665C77.8203 19.7548 77.9424 18.9014 78.1719 18.1061C78.4062 17.3109 78.7676 16.6223 79.2461 16.0356C79.7295 15.4537 80.3398 14.9881 81.0723 14.639C81.8047 14.2947 82.6689 14.125 83.6699 14.125C84.5244 14.125 85.2715 14.2656 85.916 14.5566C86.5605 14.8475 87.0977 15.2452 87.5322 15.7446C87.9717 16.2538 88.2988 16.8551 88.5234 17.5485C88.748 18.2468 88.8652 19.0032 88.8652 19.8227C88.8652 20.0458 88.8555 20.2834 88.8408 20.5307C88.8213 20.778 88.8066 20.9914 88.792 21.1659H80.3594V21.1708ZM86.4922 19.3912C86.4922 18.9402 86.4336 18.5135 86.3115 18.1061C86.1943 17.694 86.0137 17.34 85.7793 17.0345C85.5498 16.729 85.2471 16.4865 84.8857 16.3023C84.5244 16.118 84.0947 16.0259 83.5967 16.0259C82.6103 16.0259 81.8584 16.3217 81.3359 16.9133C80.8135 17.5097 80.4961 18.3341 80.3838 19.3912H86.4922Z" fill="white"/><path d="M91.9336 14.4095C92.1094 14.3755 92.2754 14.3513 92.4414 14.3319C92.5977 14.3173 92.7686 14.3125 92.9492 14.3125C93.125 14.3125 93.3008 14.3173 93.4814 14.3319C93.6572 14.3513 93.8184 14.3755 93.96 14.4095C94.0088 14.6471 94.0576 14.9671 94.1064 15.3551C94.1553 15.7527 94.1797 16.0824 94.1797 16.354C94.5166 15.8109 94.9658 15.3405 95.5225 14.938C96.0791 14.5356 96.792 14.3319 97.6611 14.3319C97.7881 14.3319 97.9199 14.3416 98.0566 14.3464C98.1934 14.3561 98.3105 14.3658 98.4082 14.3852C98.4424 14.5259 98.4668 14.681 98.4814 14.8411C98.501 15.0011 98.5059 15.1708 98.5059 15.3454C98.5059 15.5393 98.4912 15.7381 98.4717 15.9467C98.4473 16.1552 98.418 16.354 98.3838 16.548C98.2568 16.5189 98.125 16.5043 97.9883 16.5043C97.8516 16.5043 97.7393 16.5043 97.6611 16.5043C97.2266 16.5043 96.8115 16.5625 96.416 16.6837C96.0205 16.8001 95.6689 17.0183 95.3516 17.319C95.0391 17.6245 94.79 18.0415 94.6045 18.57C94.4189 19.0986 94.3262 19.7775 94.3262 20.6115V26.7408C94.1504 26.7748 93.9502 26.7942 93.7353 26.8136C93.5156 26.8281 93.3203 26.8378 93.1396 26.8378C92.9639 26.8378 92.7686 26.8281 92.5488 26.8136C92.334 26.799 92.1289 26.7748 91.9336 26.7408V14.4095Z" fill="white"/><path d="M100.361 24.5089C100.796 24.6883 101.274 24.8241 101.797 24.9308C102.324 25.0326 102.842 25.0859 103.359 25.0859C103.726 25.0859 104.082 25.0471 104.419 24.9647C104.761 24.8871 105.054 24.7659 105.303 24.6059C105.552 24.4459 105.752 24.247 105.903 24.0143C106.055 23.7815 106.138 23.5245 106.138 23.2336C106.138 22.9135 106.074 22.6468 105.952 22.4383C105.835 22.2298 105.674 22.0552 105.474 21.9098C105.269 21.7691 105.039 21.6431 104.771 21.5364C104.507 21.4345 104.219 21.3327 103.916 21.2357L103.071 20.9254C102.041 20.5374 101.289 20.1059 100.825 19.6258C100.356 19.1457 100.122 18.496 100.122 17.6765C100.122 16.5854 100.513 15.7223 101.294 15.0822C102.075 14.4372 103.223 14.1172 104.736 14.1172C105.366 14.1172 105.981 14.1802 106.587 14.2966C107.188 14.4178 107.72 14.5585 108.169 14.7185C108.14 15.0385 108.076 15.3586 107.988 15.6835C107.9 16.0035 107.793 16.2993 107.661 16.5709C107.31 16.4448 106.885 16.3187 106.396 16.1975C105.903 16.0762 105.376 16.018 104.81 16.018C104.219 16.018 103.687 16.1199 103.228 16.3284C102.769 16.5418 102.539 16.9054 102.539 17.4388C102.539 17.7104 102.593 17.9432 102.705 18.1323C102.822 18.3262 102.974 18.4911 103.164 18.6269C103.359 18.7627 103.579 18.879 103.828 18.976C104.077 19.073 104.346 19.17 104.639 19.267L105.703 19.6258C106.089 19.7519 106.455 19.9071 106.802 20.0816C107.148 20.261 107.446 20.4793 107.695 20.7411C107.944 21.0078 108.145 21.3279 108.296 21.7061C108.447 22.0795 108.53 22.5353 108.53 23.0638C108.53 23.6554 108.408 24.1985 108.164 24.6883C107.925 25.1732 107.583 25.5902 107.139 25.9345C106.694 26.2788 106.162 26.5504 105.532 26.7443C104.902 26.9335 104.214 27.0304 103.452 27.0304C102.681 27.0304 102.007 26.9771 101.426 26.8753C100.845 26.7686 100.308 26.628 99.8047 26.4534C99.8389 26.1334 99.9072 25.8085 100.01 25.4836C100.117 25.1538 100.229 24.8289 100.361 24.5089Z" fill="white"/><path d="M116.522 27.0383C115.551 27.0383 114.711 26.8734 113.983 26.5436C113.256 26.2139 112.655 25.7629 112.172 25.1859C111.688 24.6088 111.332 23.93 111.098 23.1444C110.863 22.3588 110.746 21.5054 110.746 20.5937C110.746 19.6821 110.863 18.8287 111.098 18.0431C111.332 17.2575 111.688 16.5787 112.172 16.0016C112.655 15.4246 113.261 14.9687 113.983 14.6342C114.706 14.2947 115.551 14.125 116.522 14.125C117.489 14.125 118.329 14.2947 119.057 14.6342C119.779 14.9687 120.385 15.4246 120.868 16.0016C121.352 16.5787 121.708 17.2575 121.942 18.0431C122.177 18.8287 122.294 19.6821 122.294 20.5937C122.294 21.5054 122.177 22.3588 121.942 23.1444C121.708 23.93 121.352 24.6088 120.868 25.1859C120.385 25.7629 119.779 26.2139 119.057 26.5436C118.334 26.8734 117.484 27.0383 116.522 27.0383ZM116.522 25.1374C117.631 25.1374 118.451 24.7398 118.983 23.9348C119.516 23.1347 119.779 22.0194 119.779 20.5937C119.779 19.1681 119.516 18.0577 118.983 17.2624C118.451 16.4671 117.631 16.0744 116.522 16.0744C115.409 16.0744 114.589 16.4671 114.066 17.2624C113.544 18.0577 113.28 19.1681 113.28 20.5937C113.28 22.0194 113.544 23.1347 114.066 23.9348C114.589 24.7349 115.409 25.1374 116.522 25.1374Z" fill="white"/><path d="M125.215 14.4143C125.396 14.3804 125.596 14.3561 125.82 14.3367C126.045 14.3222 126.24 14.3173 126.401 14.3173C126.577 14.3173 126.777 14.3222 127.002 14.3367C127.231 14.3561 127.432 14.3804 127.607 14.4143V21.1692C127.607 21.9402 127.681 22.5754 127.822 23.0797C127.969 23.5889 128.184 23.9817 128.477 24.2726C128.77 24.5587 129.121 24.7575 129.541 24.8691C129.961 24.9806 130.444 25.0388 130.991 25.0388C131.812 25.0388 132.515 24.9467 133.091 24.7721V14.4095C133.271 14.3804 133.467 14.3561 133.682 14.3367C133.901 14.3222 134.097 14.3125 134.277 14.3125C134.453 14.3125 134.653 14.3222 134.868 14.3367C135.088 14.3513 135.283 14.3755 135.459 14.4095V26.3578C134.897 26.5226 134.224 26.673 133.442 26.8184C132.661 26.959 131.851 27.0318 131.016 27.0318C130.229 27.0318 129.482 26.9639 128.779 26.8281C128.081 26.6923 127.466 26.4159 126.934 25.9989C126.401 25.5819 125.981 25 125.679 24.2435C125.371 23.4919 125.22 22.4978 125.22 21.2613V14.4143H125.215Z" fill="white"/><path d="M139.156 14.4095C139.332 14.3755 139.498 14.3513 139.664 14.3319C139.82 14.3173 139.991 14.3125 140.172 14.3125C140.348 14.3125 140.523 14.3173 140.704 14.3319C140.88 14.3513 141.041 14.3755 141.188 14.4095C141.231 14.6471 141.28 14.9671 141.329 15.3551C141.378 15.7527 141.402 16.0824 141.402 16.354C141.739 15.8109 142.188 15.3405 142.745 14.938C143.302 14.5356 144.015 14.3319 144.884 14.3319C145.011 14.3319 145.147 14.3416 145.279 14.3464C145.416 14.3561 145.538 14.3658 145.631 14.3852C145.665 14.5259 145.689 14.681 145.704 14.8411C145.724 15.0011 145.729 15.1708 145.729 15.3454C145.729 15.5393 145.719 15.7381 145.694 15.9467C145.67 16.1552 145.641 16.354 145.611 16.548C145.48 16.5189 145.348 16.5043 145.211 16.5043C145.074 16.5043 144.967 16.5043 144.884 16.5043C144.449 16.5043 144.039 16.5625 143.639 16.6837C143.243 16.8001 142.892 17.0183 142.579 17.319C142.262 17.6245 142.013 18.0415 141.827 18.57C141.642 19.0986 141.549 19.7775 141.549 20.6115V26.7408C141.373 26.7748 141.173 26.7942 140.958 26.8136C140.738 26.8281 140.543 26.8378 140.367 26.8378C140.187 26.8378 139.991 26.8281 139.771 26.8136C139.557 26.799 139.352 26.7748 139.156 26.7408V14.4095Z" fill="white"/><path d="M155.966 24.6088C156.093 24.8319 156.205 25.1131 156.303 25.4526C156.4 25.7872 156.454 26.1315 156.469 26.4855C155.517 26.854 154.433 27.0383 153.212 27.0383C151.146 27.0383 149.594 26.4564 148.549 25.2926C147.499 24.1336 146.977 22.5673 146.977 20.5937C146.977 19.6821 147.108 18.8287 147.367 18.0431C147.621 17.2575 148.007 16.5787 148.515 16.0016C149.022 15.4246 149.652 14.9687 150.409 14.6342C151.166 14.2947 152.045 14.125 153.046 14.125C153.72 14.125 154.315 14.1638 154.833 14.2462C155.351 14.3287 155.839 14.4547 156.303 14.6293C156.303 14.9057 156.269 15.2209 156.195 15.5797C156.122 15.9386 156.02 16.2586 155.893 16.5302C155.106 16.2586 154.203 16.118 153.188 16.118C151.947 16.118 151.02 16.5302 150.409 17.3448C149.799 18.1643 149.491 19.2457 149.491 20.5889C149.491 22.1309 149.838 23.2559 150.531 23.9687C151.225 24.6864 152.177 25.0404 153.383 25.0404C153.866 25.0404 154.315 25.0065 154.726 24.9434C155.131 24.8804 155.546 24.7689 155.966 24.6088Z" fill="white"/><path d="M159.784 12.9356C159.75 12.7417 159.73 12.5331 159.721 12.3101C159.716 12.087 159.711 11.8834 159.711 11.7088C159.711 11.5342 159.711 11.3354 159.721 11.1123C159.73 10.8844 159.75 10.6856 159.784 10.511C159.994 10.4771 160.219 10.4577 160.458 10.4383C160.702 10.4238 160.907 10.4141 161.088 10.4141C161.264 10.4141 161.474 10.4238 161.718 10.4383C161.957 10.4529 162.177 10.4771 162.367 10.511C162.401 10.6856 162.421 10.8844 162.431 11.1123C162.436 11.3354 162.44 11.5342 162.44 11.7088C162.44 11.8882 162.436 12.087 162.431 12.3101C162.421 12.5331 162.401 12.7417 162.367 12.9356C162.177 12.9696 161.962 12.9938 161.728 13.0084C161.498 13.0229 161.288 13.0326 161.112 13.0326C160.922 13.0326 160.702 13.0229 160.463 13.0084C160.214 12.9938 159.989 12.9696 159.784 12.9356Z" fill="white"/><path d="M166.063 14.4159C166.239 14.382 166.415 14.3578 166.581 14.3384C166.747 14.3238 166.923 14.319 167.099 14.319C167.279 14.319 167.44 14.3238 167.597 14.3384C167.748 14.3578 167.914 14.382 168.09 14.4159C168.139 14.6536 168.188 14.9784 168.236 15.3858C168.28 15.798 168.31 16.1374 168.31 16.4089C168.466 16.1374 168.676 15.8658 168.925 15.5943C169.174 15.3227 169.457 15.0754 169.779 14.8621C170.102 14.6439 170.473 14.4644 170.893 14.3287C171.313 14.1929 171.771 14.125 172.27 14.125C173.686 14.125 174.73 14.5323 175.409 15.3421C176.083 16.1471 176.42 17.3497 176.42 18.9353V26.7522C176.244 26.7812 176.044 26.8055 175.819 26.8249C175.595 26.8394 175.39 26.8491 175.214 26.8491C175.038 26.8491 174.843 26.8394 174.623 26.8249C174.408 26.8055 174.208 26.7861 174.032 26.7522V19.5851C174.032 18.4456 173.852 17.6115 173.5 17.0733C173.144 16.535 172.582 16.2683 171.811 16.2683C171.356 16.2683 170.932 16.3459 170.526 16.5059C170.126 16.6659 169.77 16.9133 169.462 17.2527C169.154 17.5873 168.91 18.0237 168.725 18.562C168.539 19.1002 168.451 19.7451 168.451 20.4968V26.7473C168.271 26.7812 168.075 26.8006 167.855 26.82C167.641 26.8346 167.44 26.8443 167.265 26.8443C167.084 26.8443 166.889 26.8346 166.664 26.82C166.435 26.8055 166.234 26.7812 166.059 26.7473V14.4159H166.063Z" fill="white"/><path d="M179.207 20.4076C179.207 18.4485 179.661 16.8871 180.569 15.7282C181.482 14.5692 182.688 13.9922 184.192 13.9922C185.73 13.9922 186.937 14.5353 187.796 15.6215L187.903 14.2249H189.876V26.4981C189.876 28.1274 189.388 29.4076 188.421 30.3435C187.449 31.2794 186.15 31.7497 184.515 31.7497C183.606 31.7497 182.713 31.5558 181.844 31.1678C180.97 30.7799 180.306 30.2513 179.847 29.5773L180.965 28.2874C181.893 29.427 183.025 29.9943 184.363 29.9943C185.413 29.9943 186.233 29.7034 186.819 29.1118C187.41 28.5202 187.703 27.6959 187.703 26.6242V25.5477C186.839 26.5369 185.657 27.0315 184.163 27.0315C182.688 27.0315 181.487 26.4399 180.574 25.2519C179.661 24.0687 179.207 22.4539 179.207 20.4076ZM181.375 20.6501C181.375 22.066 181.668 23.1813 182.249 23.9911C182.835 24.8009 183.655 25.2034 184.7 25.2034C186.062 25.2034 187.063 24.5876 187.703 23.3559V17.6193C187.044 16.4168 186.048 15.8155 184.725 15.8155C183.675 15.8155 182.854 16.2228 182.264 17.0374C181.673 17.8521 181.375 19.0547 181.375 20.6501Z" fill="white"/><path d="M75.0566 17.5291C74.8076 16.7532 74.4609 16.1083 74.0166 15.604C73.5723 15.0997 73.04 14.7311 72.4248 14.4887C71.8047 14.2462 71.1309 14.125 70.4033 14.125C69.9248 14.125 69.4854 14.1832 69.0898 14.2947C68.6943 14.4063 68.3428 14.5566 68.0254 14.7505C67.7129 14.9445 67.4395 15.1579 67.2148 15.4003C66.9902 15.6379 66.7949 15.8901 66.6387 16.1471C66.6387 16.0986 66.624 15.9871 66.5996 15.8077C66.5752 15.6331 66.5508 15.4488 66.5264 15.2548C66.502 15.0657 66.4775 14.8815 66.4531 14.7166C66.4287 14.5517 66.4092 14.4499 66.3945 14.4159C66.2285 14.3869 66.0625 14.3626 65.8867 14.3432C65.7061 14.3287 65.54 14.319 65.374 14.319C65.1982 14.319 65.0273 14.3287 64.8564 14.3432C64.6904 14.3578 64.5244 14.382 64.3633 14.4159V32.4208L66.7559 31.6158V26.7716C67.0293 26.854 67.3516 26.917 67.7227 26.9655C68.0937 27.0092 68.4551 27.0383 68.8115 27.0383C70.9209 27.0383 72.5469 26.4418 73.7041 25.2441C74.8516 24.0512 75.4277 22.3976 75.4277 20.2786C75.4277 19.2214 75.3057 18.305 75.0566 17.5291ZM72.6152 22.4558C72.415 23.0426 72.1416 23.5275 71.7949 23.9106C71.4482 24.2985 71.0332 24.5846 70.5498 24.764C70.0664 24.9483 69.5342 25.0404 68.958 25.0404C68.4404 25.0404 68.0254 25.0162 67.7031 24.9677C67.3809 24.9192 67.0635 24.8416 66.7607 24.7301V19.7258C66.7607 19.1196 66.8486 18.5911 67.0244 18.1498C67.2051 17.7134 67.4346 17.3448 67.7227 17.0587C68.0156 16.7678 68.3477 16.5544 68.7139 16.4089C69.085 16.2683 69.4707 16.1907 69.8711 16.1907C70.9551 16.1907 71.7266 16.569 72.2051 17.3206C72.6787 18.077 72.918 19.0954 72.918 20.3755C72.918 21.1805 72.8154 21.8739 72.6152 22.4558Z" fill="white"/><path d="M159.902 14.8685V26.7489C160.083 26.778 160.278 26.8023 160.498 26.8217C160.713 26.8362 160.903 26.8459 161.064 26.8459C161.245 26.8459 161.44 26.8362 161.655 26.8217C161.875 26.8023 162.07 26.7829 162.251 26.7489V14.0781L159.902 14.8685Z" fill="white"/><path d="M30.0112 24.6759L30.0161 24.6711L26.8373 21.6064L26.8325 21.6113L26.6811 21.4561L16.3637 11.4766L8.5854 23.0078L1.3393 33.705C0.562937 34.8494 1.70551 36.663 2.94575 36.246L29.684 27.2314C30.6752 26.9017 30.7387 25.4566 30.0112 24.6759Z" fill="url(#paint0_linear_865_1650)"/><path d="M20.7871 15.7656L14.3906 25.2069L29.1807 27.2775C30.4746 27.4617 31.002 25.6191 29.9473 24.6008L20.7871 15.7656Z" fill="url(#paint1_linear_865_1650)"/><path d="M0.743148 12.0602L14.3857 25.2111L29.3222 3.16691C30.0986 2.02252 28.9609 0.213789 27.7207 0.621116L1.0117 9.4223C0.0400234 9.74234 -0.111344 11.2359 0.743148 12.0602Z" fill="url(#paint2_linear_865_1650)"/><defs><linearGradient id="paint0_linear_865_1650" x1="17.2427" y1="26.3015" x2="-10.8917" y2="59.8142" gradientUnits="userSpaceOnUse"><stop offset="0.00186302" stop-color="#0096E3"/><stop offset="0.2137" stop-color="#00A8FF"/><stop offset="0.3791" stop-color="#24B4FF"/><stop offset="0.5807" stop-color="#4CC2FF"/></linearGradient><linearGradient id="paint1_linear_865_1650" x1="19.6799" y1="6.12955" x2="28.944" y2="71.5863" gradientUnits="userSpaceOnUse"><stop offset="0.013" stop-color="#26B2FA"/><stop offset="0.4657" stop-color="#36B5F7"/></linearGradient><linearGradient id="paint2_linear_865_1650" x1="2.82714" y1="12.8664" x2="39.5566" y2="8.85873" gradientUnits="userSpaceOnUse"><stop stop-color="#21A7EB"/><stop offset="1" stop-color="#18AAF5"/></linearGradient></defs></svg>