<svg width="101" height="17" viewBox="0 0 101 17" fill="none" xmlns="http://www.w3.org/2000/svg">
<g clip-path="url(#clip0_3731_21186)">
<path fill-rule="evenodd" clip-rule="evenodd" d="M8.52584 1.19265L10.4646 5.31702L14.9863 5.88076C15.4049 5.9347 15.7113 6.32104 15.6575 6.73995C15.6303 6.94412 15.5284 7.1211 15.3834 7.24497L12.0919 10.3274L12.9511 14.806C13.0314 15.2248 12.7577 15.6276 12.3386 15.7081C12.1562 15.7402 11.9736 15.7081 11.8232 15.6222L7.82766 13.4259L3.83794 15.6222C3.46217 15.8315 2.99492 15.6921 2.79097 15.3214C2.69946 15.1549 2.67809 14.9723 2.71046 14.806L3.56406 10.3274L0.240355 7.20722C-0.0660994 6.91715 -0.0822832 6.42873 0.207781 6.12248C0.336629 5.98284 0.503446 5.90774 0.675036 5.88616V5.88076L5.19654 5.31702L7.13507 1.19265C7.31248 0.806102 7.76914 0.645094 8.15548 0.822286C8.32728 0.90279 8.45094 1.03703 8.52584 1.19265Z" fill="url(#paint0_linear_3731_21186)"/>
</g>
<g clip-path="url(#clip1_3731_21186)">
<path fill-rule="evenodd" clip-rule="evenodd" d="M50.4868 1.19265L52.4255 5.31702L56.9472 5.88076C57.3659 5.9347 57.6722 6.32104 57.6184 6.73995C57.5913 6.94412 57.4893 7.1211 57.3443 7.24497L54.0529 10.3274L54.912 14.806C54.9923 15.2248 54.7186 15.6276 54.2996 15.7081C54.1171 15.7402 53.9346 15.7081 53.7842 15.6222L49.7886 13.4259L45.7989 15.6222C45.4231 15.8315 44.9559 15.6921 44.7519 15.3214C44.6604 15.1549 44.639 14.9723 44.6714 14.806L45.525 10.3274L42.2013 7.20722C41.8948 6.91715 41.8787 6.42873 42.1687 6.12248C42.2976 5.98284 42.4644 5.90774 42.636 5.88616V5.88076L47.1575 5.31702L49.096 1.19265C49.2734 0.806102 49.7301 0.645094 50.1164 0.822286C50.2882 0.90279 50.4119 1.03703 50.4868 1.19265Z" fill="url(#paint1_linear_3731_21186)"/>
</g>
<g clip-path="url(#clip2_3731_21186)">
<path fill-rule="evenodd" clip-rule="evenodd" d="M29.5063 1.19216L31.4451 5.31653L35.9668 5.88027C36.3854 5.93422 36.6917 6.32056 36.638 6.73946C36.6108 6.94363 36.5089 7.12061 36.3639 7.24448L33.0724 10.3269L33.9315 14.8055C34.0118 15.2243 33.7382 15.6271 33.3191 15.7076C33.1367 15.7397 32.9541 15.7076 32.8037 15.6217L28.8081 13.4254L24.8184 15.6217C24.4426 15.8311 23.9754 15.6916 23.7714 15.3209C23.6799 15.1544 23.6586 14.9718 23.6909 14.8055L24.5445 10.3269L21.2208 7.20673C20.9144 6.91666 20.8982 6.42824 21.1882 6.12199C21.3171 5.98235 21.4839 5.90725 21.6555 5.88567V5.88027L26.177 5.31653L28.1155 1.19216C28.2929 0.805614 28.7496 0.644606 29.136 0.821797C29.3077 0.902301 29.4314 1.03654 29.5063 1.19216Z" fill="url(#paint2_linear_3731_21186)"/>
</g>
<g clip-path="url(#clip3_3731_21186)">
<path fill-rule="evenodd" clip-rule="evenodd" d="M71.4672 1.19216L73.406 5.31653L77.9277 5.88027C78.3464 5.93422 78.6527 6.32056 78.5989 6.73946C78.5717 6.94363 78.4698 7.12061 78.3248 7.24448L75.0333 10.3269L75.8925 14.8055C75.9728 15.2243 75.6991 15.6271 75.28 15.7076C75.0976 15.7397 74.9151 15.7076 74.7646 15.6217L70.7691 13.4254L66.7793 15.6217C66.4036 15.8311 65.9363 15.6916 65.7324 15.3209C65.6409 15.1544 65.6195 14.9718 65.6519 14.8055L66.5055 10.3269L63.1818 7.20673C62.8753 6.91666 62.8591 6.42824 63.1492 6.12199C63.278 5.98235 63.4449 5.90725 63.6164 5.88567V5.88027L68.1379 5.31653L70.0765 1.19216C70.2539 0.805614 70.7105 0.644606 71.0969 0.821797C71.2687 0.902301 71.3923 1.03654 71.4672 1.19216Z" fill="url(#paint3_linear_3731_21186)"/>
</g>
<g clip-path="url(#clip4_3731_21186)">
<path fill-rule="evenodd" clip-rule="evenodd" d="M92.4516 1.19216L94.3904 5.31653L98.9121 5.88027C99.3307 5.93422 99.6371 6.32056 99.5833 6.73946C99.5561 6.94363 99.4542 7.12061 99.3092 7.24448L96.0177 10.3269L96.8769 14.8055C96.9571 15.2243 96.6835 15.6271 96.2644 15.7076C96.082 15.7397 95.8994 15.7076 95.749 15.6217L91.7534 13.4254L87.7637 15.6217C87.388 15.8311 86.9207 15.6916 86.7167 15.3209C86.6252 15.1544 86.6039 14.9718 86.6362 14.8055L87.4898 10.3269L84.1661 7.20673C83.8597 6.91666 83.8435 6.42824 84.1336 6.12199C84.2624 5.98235 84.4292 5.90725 84.6008 5.88567V5.88027L89.1223 5.31653L91.0609 1.19216C91.2383 0.805614 91.6949 0.644606 92.0813 0.821797C92.2531 0.902301 92.3767 1.03654 92.4516 1.19216Z" fill="#C8C8C8"/>
<g clip-path="url(#clip5_3731_21186)">
<path fill-rule="evenodd" clip-rule="evenodd" d="M92.4516 1.19216L94.3904 5.31653L98.9121 5.88027C99.3307 5.93422 99.6371 6.32056 99.5833 6.73946C99.5561 6.94363 99.4542 7.12061 99.3092 7.24448L96.0177 10.3269L96.8769 14.8055C96.9571 15.2243 96.6835 15.6271 96.2644 15.7076C96.082 15.7397 95.8994 15.7076 95.749 15.6217L91.7534 13.4254L87.7637 15.6217C87.388 15.8311 86.9207 15.6916 86.7167 15.3209C86.6252 15.1544 86.6039 14.9718 86.6362 14.8055L87.4898 10.3269L84.1661 7.20673C83.8597 6.91666 83.8435 6.42824 84.1336 6.12199C84.2624 5.98235 84.4292 5.90725 84.6008 5.88567V5.88027L89.1223 5.31653L91.0609 1.19216C91.2383 0.805614 91.6949 0.644606 92.0813 0.821797C92.2531 0.902301 92.3767 1.03654 92.4516 1.19216Z" fill="url(#paint4_linear_3731_21186)"/>
</g>
</g>
<defs>
<linearGradient id="paint0_linear_3731_21186" x1="0" y1="0.750488" x2="0" y2="15.7203" gradientUnits="userSpaceOnUse">
<stop stop-color="#FBD249"/>
<stop offset="1" stop-color="#F5A623"/>
</linearGradient>
<linearGradient id="paint1_linear_3731_21186" x1="41.9609" y1="0.750488" x2="41.9609" y2="15.7203" gradientUnits="userSpaceOnUse">
<stop stop-color="#FBD249"/>
<stop offset="1" stop-color="#F5A623"/>
</linearGradient>
<linearGradient id="paint2_linear_3731_21186" x1="20.9805" y1="0.75" x2="20.9805" y2="15.7198" gradientUnits="userSpaceOnUse">
<stop stop-color="#FBD249"/>
<stop offset="1" stop-color="#F5A623"/>
</linearGradient>
<linearGradient id="paint3_linear_3731_21186" x1="62.9414" y1="0.75" x2="62.9414" y2="15.7198" gradientUnits="userSpaceOnUse">
<stop stop-color="#FBD249"/>
<stop offset="1" stop-color="#F5A623"/>
</linearGradient>
<linearGradient id="paint4_linear_3731_21186" x1="83.9258" y1="0.75" x2="83.9258" y2="15.7198" gradientUnits="userSpaceOnUse">
<stop stop-color="#FBD249"/>
<stop offset="1" stop-color="#F5A623"/>
</linearGradient>
<clipPath id="clip0_3731_21186">
<rect width="16.5646" height="15.4603" fill="white" transform="translate(0 0.750488)"/>
</clipPath>
<clipPath id="clip1_3731_21186">
<rect width="16.5646" height="15.4603" fill="white" transform="translate(41.9609 0.750488)"/>
</clipPath>
<clipPath id="clip2_3731_21186">
<rect width="16.5646" height="15.4603" fill="white" transform="translate(20.9805 0.75)"/>
</clipPath>
<clipPath id="clip3_3731_21186">
<rect width="16.5646" height="15.4603" fill="white" transform="translate(62.9414 0.75)"/>
</clipPath>
<clipPath id="clip4_3731_21186">
<rect width="16.5646" height="15.4603" fill="white" transform="translate(83.9258 0.75)"/>
</clipPath>
<clipPath id="clip5_3731_21186">
<rect width="8.83444" height="15.4603" fill="white" transform="translate(83.9258 0.75)"/>
</clipPath>
</defs>
</svg>
