<svg width="60" height="60" viewBox="0 0 60 60" fill="none" xmlns="http://www.w3.org/2000/svg">
<path d="M42.7436 9.81836H11.7934C7.68769 9.81836 4.35938 13.1467 4.35938 17.2524V48.2025C4.35938 52.3082 7.68769 55.6365 11.7934 55.6365H42.7436C46.8492 55.6365 50.1776 52.3082 50.1776 48.2025V17.2524C50.1776 13.1467 46.8492 9.81836 42.7436 9.81836Z" fill="url(#paint0_linear_1725_2201)" fill-opacity="0.2"/>
<path d="M17.6364 4C13.4189 4 10 7.41892 10 11.6364V42.1818C10 46.3993 13.4189 49.8182 17.6364 49.8182H48.1818C52.3993 49.8182 55.8182 46.3993 55.8182 42.1818V11.6364C55.8182 7.41892 52.3993 4 48.1818 4H17.6364Z" fill="url(#paint1_linear_1725_2201)"/>
<path d="M43.9757 35.4105L36.7464 23.3578V16.6875H37.6839C37.9325 16.6875 38.171 16.5887 38.3468 16.4129C38.5226 16.2371 38.6214 15.9986 38.6214 15.75C38.6214 15.5014 38.5226 15.2629 38.3468 15.0871C38.171 14.9113 37.9325 14.8125 37.6839 14.8125H28.3089C28.0602 14.8125 27.8218 14.9113 27.646 15.0871C27.4701 15.2629 27.3714 15.5014 27.3714 15.75C27.3714 15.9986 27.4701 16.2371 27.646 16.4129C27.8218 16.5887 28.0602 16.6875 28.3089 16.6875H29.2464V23.3578L22.0171 35.4105C21.8466 35.6948 21.7545 36.0192 21.7502 36.3506C21.7459 36.6821 21.8295 37.0087 21.9925 37.2973C22.1556 37.5859 22.3923 37.8262 22.6784 37.9935C22.9645 38.1609 23.2899 38.2494 23.6214 38.25H42.3714C42.7031 38.25 43.029 38.1619 43.3156 37.9948C43.6022 37.8277 43.8394 37.5876 44.0028 37.2989C44.1663 37.0102 44.2502 36.6833 44.2461 36.3515C44.2419 36.0198 44.1498 35.6951 43.9792 35.4105H43.9757ZM30.9878 24.0996C31.0755 23.9543 31.1217 23.7877 31.1214 23.618V16.6875H34.8714V23.618C34.8711 23.7877 34.9173 23.9543 35.005 24.0996L39.4839 31.5703C38.0776 31.848 36.0772 31.7309 33.4194 30.3855C31.555 29.4422 29.7807 28.9418 28.1202 28.8844L30.9878 24.0996ZM23.6214 36.375L26.9659 30.7992C28.6358 30.5953 30.5178 31.016 32.5698 32.0555C34.7964 33.1816 36.6714 33.5648 38.1948 33.5648C38.9696 33.5683 39.741 33.4617 40.4858 33.2484L42.3714 36.375H23.6214Z" fill="white"/>
<defs>
<linearGradient id="paint0_linear_1725_2201" x1="4.54109" y1="9.45464" x2="60.5149" y2="66.9667" gradientUnits="userSpaceOnUse">
<stop stop-color="#084BFF"/>
<stop offset="1" stop-color="#F24B8B"/>
</linearGradient>
<linearGradient id="paint1_linear_1725_2201" x1="10.1817" y1="3.63628" x2="66.1555" y2="61.1484" gradientUnits="userSpaceOnUse">
<stop stop-color="#084BFF"/>
<stop offset="1" stop-color="#F24B8B"/>
</linearGradient>
</defs>
</svg>
