<svg width="20" height="21" viewBox="0 0 20 21" fill="none" xmlns="http://www.w3.org/2000/svg">
<path d="M15.436 10.8328L11.404 9.34844L9.91958 5.31328C9.83168 5.07448 9.67264 4.86838 9.46393 4.7228C9.25521 4.57722 9.00687 4.49917 8.75239 4.49917C8.49792 4.49917 8.24958 4.57722 8.04086 4.7228C7.83215 4.86838 7.67311 5.07448 7.58521 5.31328L6.09927 9.34375L2.06411 10.8281C1.82531 10.916 1.61921 11.0751 1.47363 11.2838C1.32806 11.4925 1.25 11.7408 1.25 11.9953C1.25 12.2498 1.32806 12.4981 1.47363 12.7068C1.61921 12.9156 1.82531 13.0746 2.06411 13.1625L6.0938 14.6562L7.57818 18.6891C7.66608 18.9279 7.82512 19.134 8.03383 19.2795C8.24255 19.4251 8.49089 19.5032 8.74536 19.5032C8.99983 19.5032 9.24818 19.4251 9.45689 19.2795C9.66561 19.134 9.82465 18.9279 9.91255 18.6891L11.3969 14.657L15.4321 13.1727C15.6709 13.0848 15.877 12.9257 16.0226 12.717C16.1681 12.5083 16.2462 12.2599 16.2462 12.0055C16.2462 11.751 16.1681 11.5027 16.0226 11.2939C15.877 11.0852 15.6709 10.9262 15.4321 10.8383L15.436 10.8328ZM10.968 13.4844C10.7991 13.5464 10.6457 13.6444 10.5185 13.7716C10.3913 13.8988 10.2933 14.0522 10.2313 14.2211L8.74693 18.2414L7.26568 14.218C7.20364 14.05 7.10594 13.8974 6.9793 13.7708C6.85266 13.6441 6.70009 13.5464 6.53208 13.4844L2.51177 12L6.53208 10.5156C6.70009 10.4536 6.85266 10.3559 6.9793 10.2292C7.10594 10.1026 7.20364 9.95004 7.26568 9.78203L8.75005 5.76172L10.2344 9.78203C10.2964 9.95093 10.3944 10.1043 10.5216 10.2315C10.6489 10.3587 10.8022 10.4568 10.9711 10.5187L14.9915 12.0031L10.968 13.4844ZM11.2501 3.875C11.2501 3.70924 11.3159 3.55027 11.4331 3.43306C11.5503 3.31585 11.7093 3.25 11.8751 3.25H13.1251V2C13.1251 1.83424 13.1909 1.67527 13.3081 1.55806C13.4253 1.44085 13.5843 1.375 13.7501 1.375C13.9158 1.375 14.0748 1.44085 14.192 1.55806C14.3092 1.67527 14.3751 1.83424 14.3751 2V3.25H15.6251C15.7908 3.25 15.9498 3.31585 16.067 3.43306C16.1842 3.55027 16.2501 3.70924 16.2501 3.875C16.2501 4.04076 16.1842 4.19973 16.067 4.31694C15.9498 4.43415 15.7908 4.5 15.6251 4.5H14.3751V5.75C14.3751 5.91576 14.3092 6.07473 14.192 6.19194C14.0748 6.30915 13.9158 6.375 13.7501 6.375C13.5843 6.375 13.4253 6.30915 13.3081 6.19194C13.1909 6.07473 13.1251 5.91576 13.1251 5.75V4.5H11.8751C11.7093 4.5 11.5503 4.43415 11.4331 4.31694C11.3159 4.19973 11.2501 4.04076 11.2501 3.875ZM19.3751 7.625C19.3751 7.79076 19.3092 7.94973 19.192 8.06694C19.0748 8.18415 18.9158 8.25 18.7501 8.25H18.1251V8.875C18.1251 9.04076 18.0592 9.19973 17.942 9.31694C17.8248 9.43415 17.6658 9.5 17.5001 9.5C17.3343 9.5 17.1753 9.43415 17.0581 9.31694C16.9409 9.19973 16.8751 9.04076 16.8751 8.875V8.25H16.2501C16.0843 8.25 15.9253 8.18415 15.8081 8.06694C15.6909 7.94973 15.6251 7.79076 15.6251 7.625C15.6251 7.45924 15.6909 7.30027 15.8081 7.18306C15.9253 7.06585 16.0843 7 16.2501 7H16.8751V6.375C16.8751 6.20924 16.9409 6.05027 17.0581 5.93306C17.1753 5.81585 17.3343 5.75 17.5001 5.75C17.6658 5.75 17.8248 5.81585 17.942 5.93306C18.0592 6.05027 18.1251 6.20924 18.1251 6.375V7H18.7501C18.9158 7 19.0748 7.06585 19.192 7.18306C19.3092 7.30027 19.3751 7.45924 19.3751 7.625Z" fill="#285FF5"/>
</svg>
