<svg width="20" height="21" viewBox="0 0 20 21" fill="none" xmlns="http://www.w3.org/2000/svg">
<path d="M14.3625 12.73C14.2004 13.6353 13.7649 14.4691 13.1146 15.1193C12.4642 15.7696 11.6303 16.2049 10.725 16.3668C10.6906 16.3723 10.6559 16.3751 10.6211 16.3754C10.4643 16.3753 10.3133 16.3164 10.1979 16.2102C10.0826 16.104 10.0114 15.9583 9.9984 15.8021C9.98542 15.6459 10.0316 15.4905 10.1279 15.3667C10.2241 15.2429 10.3633 15.1599 10.518 15.134C11.8125 14.916 12.9109 13.8175 13.1305 12.5207C13.1582 12.3572 13.2498 12.2114 13.385 12.1155C13.5203 12.0195 13.6881 11.9812 13.8516 12.009C14.015 12.0367 14.1608 12.1283 14.2568 12.2635C14.3527 12.3988 14.391 12.5666 14.3633 12.73H14.3625ZM16.8711 12.0004C16.8711 13.8237 16.1468 15.5724 14.8575 16.8617C13.5681 18.151 11.8195 18.8754 9.99609 18.8754C8.17273 18.8754 6.42405 18.151 5.13473 16.8617C3.84542 15.5724 3.12109 13.8237 3.12109 12.0004C3.12109 9.81911 3.98047 7.58864 5.67266 5.37146C5.72622 5.30125 5.79405 5.24319 5.87169 5.20111C5.94932 5.15902 6.03499 5.13387 6.12305 5.1273C6.21111 5.12073 6.29957 5.13289 6.38258 5.16299C6.4656 5.19309 6.5413 5.24044 6.60469 5.30192L8.48906 7.13083L10.2078 2.4113C10.2422 2.31717 10.2986 2.23267 10.3724 2.16494C10.4463 2.0972 10.5353 2.04821 10.6321 2.02209C10.7288 1.99598 10.8304 1.9935 10.9283 2.01487C11.0262 2.03624 11.1175 2.08084 11.1945 2.14489C12.9031 3.56286 16.8711 7.35583 16.8711 12.0004ZM15.6211 12.0004C15.6211 8.39958 12.825 5.28786 11.0734 3.69333L9.33359 8.46442C9.29788 8.56242 9.23822 8.64992 9.16004 8.71895C9.08186 8.78798 8.98765 8.83635 8.88599 8.85964C8.78433 8.88294 8.67845 8.88043 8.57801 8.85234C8.47757 8.82424 8.38576 8.77146 8.31094 8.6988L6.25078 6.70036C5.00312 8.50114 4.37109 10.2816 4.37109 12.0004C4.37109 13.4922 4.96373 14.9229 6.01862 15.9778C7.07351 17.0327 8.50425 17.6254 9.99609 17.6254C11.4879 17.6254 12.9187 17.0327 13.9736 15.9778C15.0285 14.9229 15.6211 13.4922 15.6211 12.0004Z" fill="#00A01A"/>
</svg>
